<svg width="34" height="34" viewBox="0 0 34 34" fill="none" xmlns="http://www.w3.org/2000/svg">
<g clip-path="url(#clip0_334_1428)">
<path d="M25.4853 16.9999C25.4852 16.7348 25.3799 16.4805 25.1924 16.293C25.0049 16.1055 24.7506 16.0001 24.4854 16.0001L17.9998 16.0001L17.9998 9.5145C17.9998 9.24933 17.8945 8.99504 17.707 8.80754C17.5195 8.62004 17.2652 8.51469 17 8.51465C16.7348 8.51469 16.4805 8.62004 16.293 8.80754C16.1055 8.99504 16.0002 9.24933 16.0002 9.5145L16.0002 16.0001L9.51457 16.0001C9.2494 16.0001 8.99511 16.1055 8.80761 16.293C8.62011 16.4805 8.51476 16.7348 8.51472 16.9999C8.51476 17.2651 8.62011 17.5194 8.80761 17.7069C8.99511 17.8944 9.2494 17.9997 9.51457 17.9998L16.0002 17.9998L16.0002 24.4854C16.0002 24.7505 16.1055 25.0048 16.293 25.1923C16.4805 25.3798 16.7348 25.4852 17 25.4852C17.2652 25.4852 17.5195 25.3798 17.707 25.1923C17.8945 25.0048 17.9998 24.7505 17.9998 24.4854L17.9998 17.9998L24.4854 17.9998C24.7506 17.9997 25.0049 17.8944 25.1924 17.7069C25.3799 17.5194 25.4852 17.2651 25.4853 16.9999Z" fill="black"/>
</g>
<defs>
<clipPath id="clip0_334_1428">
<rect width="24" height="24" fill="white" transform="translate(17 0.0292969) rotate(45)"/>
</clipPath>
</defs>
</svg>
