<svg width="192" height="57" viewBox="0 0 192 57" fill="none" xmlns="http://www.w3.org/2000/svg">
<g clip-path="url(#clip0_96_306)">
<path d="M38.1576 12.5C38.2321 12.5 38.3066 12.5 38.3853 12.5C38.5679 14.7567 37.7066 16.4429 36.6597 17.664C35.6325 18.8767 34.226 20.0528 31.951 19.8743C31.7992 17.65 32.662 16.0888 33.7075 14.8705C34.677 13.7351 36.4546 12.7248 38.1576 12.5Z" fill="white"/>
<path d="M45.0445 35.9889C45.0445 36.0114 45.0445 36.0311 45.0445 36.0522C44.4051 37.9885 43.4932 39.648 42.3803 41.1881C41.3643 42.5862 40.1194 44.4677 37.8964 44.4677C35.9755 44.4677 34.6996 43.2326 32.731 43.1989C30.6485 43.1651 29.5033 44.2317 27.5993 44.5001C27.3815 44.5001 27.1637 44.5001 26.9501 44.5001C25.5519 44.2977 24.4236 43.1904 23.6016 42.1928C21.1776 39.2447 19.3045 35.4367 18.9561 30.5635C18.9561 30.0858 18.9561 29.6094 18.9561 29.1317C19.1036 25.644 20.7982 22.8084 23.0507 21.4341C24.2395 20.7034 25.8737 20.081 27.6934 20.3592C28.4733 20.48 29.27 20.747 29.9684 21.0112C30.6302 21.2655 31.4579 21.7166 32.242 21.6927C32.7731 21.6772 33.3015 21.4004 33.8368 21.2051C35.405 20.6388 36.9423 19.9896 38.9685 20.2945C41.4037 20.6627 43.1321 21.7447 44.2 23.414C42.14 24.7251 40.5114 26.7007 40.7896 30.0745C41.0369 33.1392 42.8187 34.9322 45.0445 35.9889Z" fill="white"/>
</g>
<path d="M68.2568 11C68.7434 11 69.1701 11.0933 69.5368 11.28C69.9101 11.46 70.2201 11.7133 70.4668 12.04C70.7134 12.3667 70.8968 12.7433 71.0168 13.17C71.1434 13.59 71.2068 14.0333 71.2068 14.5C71.2068 15.14 71.0968 15.7267 70.8768 16.26C70.6568 16.7867 70.3301 17.21 69.8968 17.53C69.4634 17.8433 68.9168 18 68.2568 18H65.7568C65.6434 18 65.5468 17.96 65.4668 17.88C65.3934 17.8 65.3568 17.7033 65.3568 17.59V11.4C65.3568 11.2867 65.3934 11.1933 65.4668 11.12C65.5468 11.04 65.6434 11 65.7568 11H68.2568ZM68.1568 17.22C68.6701 17.22 69.0868 17.0967 69.4068 16.85C69.7334 16.6033 69.9701 16.2733 70.1168 15.86C70.2701 15.4467 70.3468 14.9933 70.3468 14.5C70.3468 14.14 70.3034 13.7967 70.2168 13.47C70.1368 13.1367 70.0068 12.8433 69.8268 12.59C69.6534 12.3367 69.4268 12.1367 69.1468 11.99C68.8734 11.8433 68.5434 11.77 68.1568 11.77H66.1068L66.1868 11.69V17.32L66.1268 17.22H68.1568ZM79.4445 14.5C79.4445 15.0133 79.3612 15.49 79.1945 15.93C79.0278 16.3633 78.7945 16.7433 78.4945 17.07C78.1945 17.3967 77.8378 17.65 77.4245 17.83C77.0112 18.01 76.5612 18.1 76.0745 18.1C75.5812 18.1 75.1278 18.01 74.7145 17.83C74.3078 17.65 73.9545 17.3967 73.6545 17.07C73.3545 16.7433 73.1212 16.3633 72.9545 15.93C72.7878 15.49 72.7045 15.0133 72.7045 14.5C72.7045 13.98 72.7878 13.5033 72.9545 13.07C73.1212 12.63 73.3545 12.25 73.6545 11.93C73.9545 11.6033 74.3078 11.35 74.7145 11.17C75.1278 10.99 75.5812 10.9 76.0745 10.9C76.5612 10.9 77.0112 10.99 77.4245 11.17C77.8378 11.35 78.1945 11.6033 78.4945 11.93C78.7945 12.25 79.0278 12.63 79.1945 13.07C79.3612 13.5033 79.4445 13.98 79.4445 14.5ZM78.5845 14.5C78.5845 13.9533 78.4745 13.47 78.2545 13.05C78.0412 12.63 77.7478 12.3 77.3745 12.06C77.0012 11.82 76.5678 11.7 76.0745 11.7C75.5812 11.7 75.1445 11.82 74.7645 12.06C74.3912 12.3 74.0978 12.63 73.8845 13.05C73.6712 13.47 73.5645 13.9533 73.5645 14.5C73.5645 15.04 73.6712 15.5233 73.8845 15.95C74.0978 16.37 74.3912 16.7 74.7645 16.94C75.1445 17.18 75.5812 17.3 76.0745 17.3C76.5678 17.3 77.0012 17.18 77.3745 16.94C77.7478 16.7 78.0412 16.37 78.2545 15.95C78.4745 15.5233 78.5845 15.04 78.5845 14.5ZM89.3424 10.97C89.449 10.97 89.5457 11.0067 89.6324 11.08C89.7257 11.1533 89.7724 11.2567 89.7724 11.39C89.7724 11.4367 89.7657 11.4867 89.7524 11.54L87.6224 17.74C87.5957 17.82 87.5457 17.8833 87.4724 17.93C87.4057 17.97 87.3357 17.9933 87.2624 18C87.1824 18 87.1057 17.98 87.0324 17.94C86.959 17.8933 86.9024 17.8267 86.8624 17.74L85.1924 13.7L85.2724 13.73L83.6124 17.74C83.5724 17.8267 83.5157 17.8933 83.4424 17.94C83.369 17.98 83.2924 18 83.2124 18C83.139 17.9933 83.0657 17.97 82.9924 17.93C82.9257 17.8833 82.879 17.82 82.8524 17.74L80.7224 11.54C80.709 11.4867 80.7024 11.44 80.7024 11.4C80.7024 11.2667 80.749 11.1633 80.8424 11.09C80.9424 11.01 81.0424 10.97 81.1424 10.97C81.2224 10.97 81.299 10.9933 81.3724 11.04C81.4457 11.0867 81.4957 11.15 81.5224 11.23L83.3924 16.75H83.2524L84.8824 12.72C84.9157 12.64 84.9657 12.5767 85.0324 12.53C85.099 12.4833 85.1757 12.46 85.2624 12.46C85.3424 12.46 85.4157 12.4833 85.4824 12.53C85.5557 12.5767 85.6057 12.64 85.6324 12.72L87.2124 16.69L87.0924 16.74L88.9524 11.23C88.979 11.15 89.029 11.0867 89.1024 11.04C89.1757 10.9933 89.2557 10.97 89.3424 10.97ZM96.6922 11C96.8056 11 96.8956 11.0367 96.9622 11.11C97.0289 11.1767 97.0622 11.2633 97.0622 11.37V17.58C97.0622 17.7067 97.0222 17.81 96.9422 17.89C96.8622 17.9633 96.7656 18 96.6522 18C96.5922 18 96.5322 17.99 96.4722 17.97C96.4122 17.9433 96.3656 17.91 96.3322 17.87L92.0522 12.21L92.2522 12.09V17.63C92.2522 17.7367 92.2156 17.8267 92.1422 17.9C92.0756 17.9667 91.9856 18 91.8722 18C91.7656 18 91.6789 17.9667 91.6122 17.9C91.5456 17.8267 91.5122 17.7367 91.5122 17.63V11.4C91.5122 11.28 91.5489 11.1833 91.6222 11.11C91.7022 11.0367 91.7956 11 91.9022 11C91.9622 11 92.0222 11.0133 92.0822 11.04C92.1489 11.06 92.1989 11.0933 92.2322 11.14L96.4522 16.72L96.3222 16.88V11.37C96.3222 11.2633 96.3556 11.1767 96.4222 11.11C96.4956 11.0367 96.5856 11 96.6922 11ZM103.277 17.21C103.39 17.21 103.487 17.25 103.567 17.33C103.647 17.4033 103.687 17.4967 103.687 17.61C103.687 17.7233 103.647 17.8167 103.567 17.89C103.487 17.9633 103.39 18 103.277 18H99.8169C99.7036 18 99.6069 17.96 99.5269 17.88C99.4536 17.8 99.4169 17.7033 99.4169 17.59V11.4C99.4169 11.2867 99.4569 11.1933 99.5369 11.12C99.6169 11.04 99.7169 11 99.8369 11C99.9502 11 100.047 11.04 100.127 11.12C100.207 11.1933 100.247 11.2867 100.247 11.4V17.39L100.047 17.21H103.277ZM111.649 14.5C111.649 15.0133 111.566 15.49 111.399 15.93C111.233 16.3633 110.999 16.7433 110.699 17.07C110.399 17.3967 110.043 17.65 109.629 17.83C109.216 18.01 108.766 18.1 108.279 18.1C107.786 18.1 107.333 18.01 106.919 17.83C106.513 17.65 106.159 17.3967 105.859 17.07C105.559 16.7433 105.326 16.3633 105.159 15.93C104.993 15.49 104.909 15.0133 104.909 14.5C104.909 13.98 104.993 13.5033 105.159 13.07C105.326 12.63 105.559 12.25 105.859 11.93C106.159 11.6033 106.513 11.35 106.919 11.17C107.333 10.99 107.786 10.9 108.279 10.9C108.766 10.9 109.216 10.99 109.629 11.17C110.043 11.35 110.399 11.6033 110.699 11.93C110.999 12.25 111.233 12.63 111.399 13.07C111.566 13.5033 111.649 13.98 111.649 14.5ZM110.789 14.5C110.789 13.9533 110.679 13.47 110.459 13.05C110.246 12.63 109.953 12.3 109.579 12.06C109.206 11.82 108.773 11.7 108.279 11.7C107.786 11.7 107.349 11.82 106.969 12.06C106.596 12.3 106.303 12.63 106.089 13.05C105.876 13.47 105.769 13.9533 105.769 14.5C105.769 15.04 105.876 15.5233 106.089 15.95C106.303 16.37 106.596 16.7 106.969 16.94C107.349 17.18 107.786 17.3 108.279 17.3C108.773 17.3 109.206 17.18 109.579 16.94C109.953 16.7 110.246 16.37 110.459 15.95C110.679 15.5233 110.789 15.04 110.789 14.5ZM115.947 12.04L113.597 17.76C113.57 17.84 113.524 17.9033 113.457 17.95C113.39 17.9967 113.32 18.02 113.247 18.02C113.12 18.02 113.027 17.9867 112.967 17.92C112.907 17.8533 112.877 17.7733 112.877 17.68C112.87 17.6333 112.877 17.5833 112.897 17.53L115.487 11.23C115.52 11.1367 115.57 11.07 115.637 11.03C115.71 10.9833 115.79 10.9633 115.877 10.97C115.964 10.97 116.04 10.9933 116.107 11.04C116.18 11.0867 116.23 11.15 116.257 11.23L118.837 17.47C118.857 17.5233 118.867 17.5767 118.867 17.63C118.867 17.75 118.827 17.8467 118.747 17.92C118.667 17.9867 118.577 18.02 118.477 18.02C118.397 18.02 118.324 17.9967 118.257 17.95C118.19 17.9033 118.14 17.8367 118.107 17.75L115.727 12.03L115.947 12.04ZM114.097 16.13L114.437 15.35H117.407L117.557 16.13H114.097ZM123.463 11C123.949 11 124.376 11.0933 124.743 11.28C125.116 11.46 125.426 11.7133 125.673 12.04C125.919 12.3667 126.103 12.7433 126.223 13.17C126.349 13.59 126.413 14.0333 126.413 14.5C126.413 15.14 126.303 15.7267 126.083 16.26C125.863 16.7867 125.536 17.21 125.103 17.53C124.669 17.8433 124.123 18 123.463 18H120.963C120.849 18 120.753 17.96 120.673 17.88C120.599 17.8 120.563 17.7033 120.563 17.59V11.4C120.563 11.2867 120.599 11.1933 120.673 11.12C120.753 11.04 120.849 11 120.963 11H123.463ZM123.363 17.22C123.876 17.22 124.293 17.0967 124.613 16.85C124.939 16.6033 125.176 16.2733 125.323 15.86C125.476 15.4467 125.553 14.9933 125.553 14.5C125.553 14.14 125.509 13.7967 125.423 13.47C125.343 13.1367 125.213 12.8433 125.033 12.59C124.859 12.3367 124.633 12.1367 124.353 11.99C124.079 11.8433 123.749 11.77 123.363 11.77H121.313L121.393 11.69V17.32L121.333 17.22H123.363ZM138.004 14.5C138.004 15.0133 137.921 15.49 137.754 15.93C137.588 16.3633 137.354 16.7433 137.054 17.07C136.754 17.3967 136.398 17.65 135.984 17.83C135.571 18.01 135.121 18.1 134.634 18.1C134.141 18.1 133.688 18.01 133.274 17.83C132.868 17.65 132.514 17.3967 132.214 17.07C131.914 16.7433 131.681 16.3633 131.514 15.93C131.348 15.49 131.264 15.0133 131.264 14.5C131.264 13.98 131.348 13.5033 131.514 13.07C131.681 12.63 131.914 12.25 132.214 11.93C132.514 11.6033 132.868 11.35 133.274 11.17C133.688 10.99 134.141 10.9 134.634 10.9C135.121 10.9 135.571 10.99 135.984 11.17C136.398 11.35 136.754 11.6033 137.054 11.93C137.354 12.25 137.588 12.63 137.754 13.07C137.921 13.5033 138.004 13.98 138.004 14.5ZM137.144 14.5C137.144 13.9533 137.034 13.47 136.814 13.05C136.601 12.63 136.308 12.3 135.934 12.06C135.561 11.82 135.128 11.7 134.634 11.7C134.141 11.7 133.704 11.82 133.324 12.06C132.951 12.3 132.658 12.63 132.444 13.05C132.231 13.47 132.124 13.9533 132.124 14.5C132.124 15.04 132.231 15.5233 132.444 15.95C132.658 16.37 132.951 16.7 133.324 16.94C133.704 17.18 134.141 17.3 134.634 17.3C135.128 17.3 135.561 17.18 135.934 16.94C136.308 16.7 136.601 16.37 136.814 15.95C137.034 15.5233 137.144 15.04 137.144 14.5ZM145.111 11C145.224 11 145.314 11.0367 145.381 11.11C145.448 11.1767 145.481 11.2633 145.481 11.37V17.58C145.481 17.7067 145.441 17.81 145.361 17.89C145.281 17.9633 145.184 18 145.071 18C145.011 18 144.951 17.99 144.891 17.97C144.831 17.9433 144.784 17.91 144.751 17.87L140.471 12.21L140.671 12.09V17.63C140.671 17.7367 140.634 17.8267 140.561 17.9C140.494 17.9667 140.404 18 140.291 18C140.184 18 140.098 17.9667 140.031 17.9C139.964 17.8267 139.931 17.7367 139.931 17.63V11.4C139.931 11.28 139.968 11.1833 140.041 11.11C140.121 11.0367 140.214 11 140.321 11C140.381 11 140.441 11.0133 140.501 11.04C140.568 11.06 140.618 11.0933 140.651 11.14L144.871 16.72L144.741 16.88V11.37C144.741 11.2633 144.774 11.1767 144.841 11.11C144.914 11.0367 145.004 11 145.111 11ZM153.36 18C153.24 18 153.14 17.96 153.06 17.88C152.98 17.8 152.94 17.7033 152.94 17.59V11.41H153.79V17.59C153.79 17.7033 153.75 17.8 153.67 17.88C153.59 17.96 153.486 18 153.36 18ZM151.04 11.76C150.926 11.76 150.83 11.7267 150.75 11.66C150.676 11.5867 150.64 11.4933 150.64 11.38C150.64 11.2667 150.676 11.1767 150.75 11.11C150.83 11.0367 150.926 11 151.04 11H155.69C155.803 11 155.9 11.0367 155.98 11.11C156.06 11.1767 156.1 11.2667 156.1 11.38C156.1 11.5 156.06 11.5933 155.98 11.66C155.9 11.7267 155.803 11.76 155.69 11.76H151.04ZM158.323 11C158.436 11 158.533 11.04 158.613 11.12C158.693 11.1933 158.733 11.29 158.733 11.41V17.59C158.733 17.7033 158.69 17.8 158.603 17.88C158.523 17.96 158.426 18 158.313 18C158.186 18 158.086 17.96 158.013 17.88C157.94 17.8 157.903 17.7033 157.903 17.59V11.41C157.903 11.29 157.943 11.1933 158.023 11.12C158.103 11.04 158.203 11 158.323 11ZM162.933 11C163.053 11 163.15 11.04 163.223 11.12C163.303 11.1933 163.343 11.29 163.343 11.41V17.59C163.343 17.7033 163.303 17.8 163.223 17.88C163.143 17.96 163.043 18 162.923 18C162.81 18 162.713 17.96 162.633 17.88C162.553 17.8 162.513 17.7033 162.513 17.59V11.41C162.513 11.29 162.553 11.1933 162.633 11.12C162.72 11.04 162.82 11 162.933 11ZM158.283 14.05H162.943L162.933 14.83H158.253L158.283 14.05ZM166.1 11H169.66C169.773 11 169.87 11.0367 169.95 11.11C170.03 11.1833 170.07 11.2767 170.07 11.39C170.07 11.5033 170.03 11.5967 169.95 11.67C169.87 11.7367 169.773 11.77 169.66 11.77H166.44L166.53 11.6V14.13L166.43 14.02H169.21C169.323 14.02 169.42 14.0567 169.5 14.13C169.58 14.2033 169.62 14.2967 169.62 14.41C169.62 14.5233 169.58 14.6167 169.5 14.69C169.42 14.7567 169.323 14.79 169.21 14.79H166.46L166.53 14.7V17.29L166.47 17.22H169.66C169.773 17.22 169.87 17.26 169.95 17.34C170.03 17.42 170.07 17.51 170.07 17.61C170.07 17.7233 170.03 17.8167 169.95 17.89C169.87 17.9633 169.773 18 169.66 18H166.1C165.987 18 165.89 17.96 165.81 17.88C165.737 17.8 165.7 17.7033 165.7 17.59V11.4C165.7 11.2867 165.737 11.1933 165.81 11.12C165.89 11.04 165.987 11 166.1 11Z" fill="white"/>
<path d="M75.215 37.12H69.295L68.055 40H64.355L70.695 26.66H73.975L80.295 40H76.555L75.215 37.12ZM73.975 34.42L72.975 32.34C72.595 31.52 72.415 31.1 72.155 30.48C71.895 31.12 71.835 31.28 71.375 32.38L70.495 34.42H73.975ZM81.6139 43.46V30.14H84.7739V31.08C85.7739 30.2 86.8339 29.8 88.1539 29.8C91.1739 29.8 93.4339 32.06 93.4339 35.08C93.4339 38.08 91.1739 40.34 88.1539 40.34C86.8339 40.34 85.7539 39.94 84.7739 39.06V43.46H81.6139ZM87.4139 32.06C85.8339 32.06 84.5339 33.4 84.5339 35.02C84.5339 36.74 85.7939 38.08 87.3939 38.08C89.0139 38.08 90.2939 36.76 90.2939 35.06C90.2939 33.4 89.0139 32.06 87.4139 32.06ZM95.6764 43.46V30.14H98.8364V31.08C99.8364 30.2 100.896 29.8 102.216 29.8C105.236 29.8 107.496 32.06 107.496 35.08C107.496 38.08 105.236 40.34 102.216 40.34C100.896 40.34 99.8164 39.94 98.8364 39.06V43.46H95.6764ZM101.476 32.06C99.8964 32.06 98.5964 33.4 98.5964 35.02C98.5964 36.74 99.8564 38.08 101.456 38.08C103.076 38.08 104.356 36.76 104.356 35.06C104.356 33.4 103.076 32.06 101.476 32.06ZM129.275 30.64H125.755C125.515 29.84 125.235 29.44 124.635 29.12C124.015 28.8 123.275 28.66 122.295 28.66C120.315 28.66 119.135 29.26 119.135 30.26C119.135 31.02 119.655 31.36 121.075 31.5L124.315 31.84C126.035 32 126.955 32.22 127.855 32.68C129.075 33.28 129.835 34.52 129.835 35.92C129.835 37.48 128.915 38.88 127.415 39.6C126.135 40.22 124.635 40.48 122.475 40.48C119.755 40.48 117.835 39.96 116.615 38.9C115.675 38.1 115.335 37.22 115.215 35.46H118.715C118.815 36.34 119.055 36.8 119.595 37.22C120.335 37.78 121.255 38.02 122.635 38.02C124.815 38.02 126.075 37.38 126.075 36.28C126.075 35.4 125.415 34.96 123.855 34.8L120.095 34.42C117.175 34.12 115.595 32.8 115.595 30.68C115.595 27.9 118.155 26.2 122.315 26.2C124.415 26.2 126.315 26.68 127.515 27.5C128.555 28.22 129.015 29.06 129.275 30.64ZM135.819 27.34V30.14H138.139V32.4H135.819V36.52C135.819 37.38 136.119 37.62 137.159 37.6H138.059V40H136.099C133.259 40 132.619 39.34 132.659 36.48V32.4H131.239V30.14H132.659V27.34H135.819ZM145.718 29.74C147.598 29.74 149.258 30.3 150.418 31.3C151.498 32.26 152.038 33.52 152.038 35.16C152.038 38.26 149.438 40.4 145.678 40.4C141.858 40.4 139.318 38.28 139.318 35.06C139.318 31.86 141.858 29.74 145.718 29.74ZM145.698 32.08C143.938 32.08 142.718 33.3 142.718 35.06C142.718 36.82 143.938 38.06 145.678 38.06C147.378 38.06 148.638 36.82 148.638 35.12C148.638 33.32 147.438 32.08 145.698 32.08ZM154.27 30.14H157.43V31.58C158.31 30.44 159.37 29.9 160.77 29.9C160.95 29.9 161.09 29.92 161.41 29.94V32.6C160.97 32.48 160.73 32.46 160.39 32.46C158.57 32.46 157.43 33.58 157.43 35.38V40H154.27V30.14ZM174.735 35.7H165.935C165.955 37.24 167.055 38.2 168.755 38.2C169.975 38.2 170.735 37.78 171.115 36.88H174.615C174.295 37.78 173.875 38.36 173.075 39.02C171.935 39.96 170.595 40.4 168.855 40.4C166.775 40.4 165.135 39.84 164.115 38.8C163.215 37.88 162.735 36.6 162.735 35.14C162.735 31.84 165.055 29.74 168.735 29.74C171.215 29.74 173.075 30.66 173.975 32.36C174.495 33.32 174.695 34.26 174.735 35.7ZM166.035 33.74H171.355C171.035 32.38 170.155 31.7 168.695 31.7C167.235 31.7 166.335 32.38 166.035 33.74Z" fill="white"/>
<defs>
<clipPath id="clip0_96_306">
<rect width="32" height="32" fill="white" transform="translate(16 12.5)"/>
</clipPath>
</defs>
</svg>
