<svg width="241" height="77" viewBox="0 0 241 77" fill="none" xmlns="http://www.w3.org/2000/svg">
<rect x="1.5" y="1" width="238" height="75" rx="37.5" fill="#1065EC" fill-opacity="0.12"/>
<rect x="1.5" y="1" width="238" height="75" rx="37.5" stroke="url(#paint0_linear_205_607)" stroke-width="2"/>
<g clip-path="url(#clip0_205_607)">
<path d="M62.6576 22.5C62.7321 22.5 62.8066 22.5 62.8853 22.5C63.0679 24.7567 62.2066 26.4429 61.1597 27.664C60.1325 28.8767 58.726 30.0528 56.451 29.8743C56.2992 27.65 57.162 26.0888 58.2075 24.8705C59.177 23.7351 60.9546 22.7248 62.6576 22.5Z" fill="white"/>
<path d="M69.5445 45.9889C69.5445 46.0114 69.5445 46.0311 69.5445 46.0522C68.9051 47.9885 67.9932 49.648 66.8803 51.1881C65.8643 52.5862 64.6194 54.4677 62.3964 54.4677C60.4755 54.4677 59.1996 53.2326 57.231 53.1989C55.1485 53.1651 54.0033 54.2317 52.0993 54.5001C51.8815 54.5001 51.6637 54.5001 51.4501 54.5001C50.0519 54.2977 48.9236 53.1904 48.1016 52.1928C45.6776 49.2447 43.8045 45.4367 43.4561 40.5635C43.4561 40.0858 43.4561 39.6094 43.4561 39.1317C43.6036 35.644 45.2982 32.8084 47.5507 31.4341C48.7395 30.7034 50.3737 30.081 52.1934 30.3592C52.9733 30.48 53.77 30.747 54.4684 31.0112C55.1302 31.2655 55.9579 31.7166 56.742 31.6927C57.2731 31.6772 57.8015 31.4004 58.3368 31.2051C59.905 30.6388 61.4423 29.9896 63.4685 30.2945C65.9037 30.6627 67.6321 31.7447 68.7 33.414C66.64 34.7251 65.0114 36.7007 65.2896 40.0745C65.5369 43.1392 67.3187 44.9322 69.5445 45.9889Z" fill="white"/>
</g>
<path d="M92.7568 21C93.2434 21 93.6701 21.0933 94.0368 21.28C94.4101 21.46 94.7201 21.7133 94.9668 22.04C95.2134 22.3667 95.3968 22.7433 95.5168 23.17C95.6434 23.59 95.7068 24.0333 95.7068 24.5C95.7068 25.14 95.5968 25.7267 95.3768 26.26C95.1568 26.7867 94.8301 27.21 94.3968 27.53C93.9634 27.8433 93.4168 28 92.7568 28H90.2568C90.1434 28 90.0468 27.96 89.9668 27.88C89.8934 27.8 89.8568 27.7033 89.8568 27.59V21.4C89.8568 21.2867 89.8934 21.1933 89.9668 21.12C90.0468 21.04 90.1434 21 90.2568 21H92.7568ZM92.6568 27.22C93.1701 27.22 93.5868 27.0967 93.9068 26.85C94.2334 26.6033 94.4701 26.2733 94.6168 25.86C94.7701 25.4467 94.8468 24.9933 94.8468 24.5C94.8468 24.14 94.8034 23.7967 94.7168 23.47C94.6368 23.1367 94.5068 22.8433 94.3268 22.59C94.1534 22.3367 93.9268 22.1367 93.6468 21.99C93.3734 21.8433 93.0434 21.77 92.6568 21.77H90.6068L90.6868 21.69V27.32L90.6268 27.22H92.6568ZM103.944 24.5C103.944 25.0133 103.861 25.49 103.694 25.93C103.528 26.3633 103.294 26.7433 102.994 27.07C102.694 27.3967 102.338 27.65 101.924 27.83C101.511 28.01 101.061 28.1 100.574 28.1C100.081 28.1 99.6278 28.01 99.2145 27.83C98.8078 27.65 98.4545 27.3967 98.1545 27.07C97.8545 26.7433 97.6212 26.3633 97.4545 25.93C97.2878 25.49 97.2045 25.0133 97.2045 24.5C97.2045 23.98 97.2878 23.5033 97.4545 23.07C97.6212 22.63 97.8545 22.25 98.1545 21.93C98.4545 21.6033 98.8078 21.35 99.2145 21.17C99.6278 20.99 100.081 20.9 100.574 20.9C101.061 20.9 101.511 20.99 101.924 21.17C102.338 21.35 102.694 21.6033 102.994 21.93C103.294 22.25 103.528 22.63 103.694 23.07C103.861 23.5033 103.944 23.98 103.944 24.5ZM103.084 24.5C103.084 23.9533 102.974 23.47 102.754 23.05C102.541 22.63 102.248 22.3 101.874 22.06C101.501 21.82 101.068 21.7 100.574 21.7C100.081 21.7 99.6445 21.82 99.2645 22.06C98.8912 22.3 98.5978 22.63 98.3845 23.05C98.1712 23.47 98.0645 23.9533 98.0645 24.5C98.0645 25.04 98.1712 25.5233 98.3845 25.95C98.5978 26.37 98.8912 26.7 99.2645 26.94C99.6445 27.18 100.081 27.3 100.574 27.3C101.068 27.3 101.501 27.18 101.874 26.94C102.248 26.7 102.541 26.37 102.754 25.95C102.974 25.5233 103.084 25.04 103.084 24.5ZM113.842 20.97C113.949 20.97 114.046 21.0067 114.132 21.08C114.226 21.1533 114.272 21.2567 114.272 21.39C114.272 21.4367 114.266 21.4867 114.252 21.54L112.122 27.74C112.096 27.82 112.046 27.8833 111.972 27.93C111.906 27.97 111.836 27.9933 111.762 28C111.682 28 111.606 27.98 111.532 27.94C111.459 27.8933 111.402 27.8267 111.362 27.74L109.692 23.7L109.772 23.73L108.112 27.74C108.072 27.8267 108.016 27.8933 107.942 27.94C107.869 27.98 107.792 28 107.712 28C107.639 27.9933 107.566 27.97 107.492 27.93C107.426 27.8833 107.379 27.82 107.352 27.74L105.222 21.54C105.209 21.4867 105.202 21.44 105.202 21.4C105.202 21.2667 105.249 21.1633 105.342 21.09C105.442 21.01 105.542 20.97 105.642 20.97C105.722 20.97 105.799 20.9933 105.872 21.04C105.946 21.0867 105.996 21.15 106.022 21.23L107.892 26.75H107.752L109.382 22.72C109.416 22.64 109.466 22.5767 109.532 22.53C109.599 22.4833 109.676 22.46 109.762 22.46C109.842 22.46 109.916 22.4833 109.982 22.53C110.056 22.5767 110.106 22.64 110.132 22.72L111.712 26.69L111.592 26.74L113.452 21.23C113.479 21.15 113.529 21.0867 113.602 21.04C113.676 20.9933 113.756 20.97 113.842 20.97ZM121.192 21C121.306 21 121.396 21.0367 121.462 21.11C121.529 21.1767 121.562 21.2633 121.562 21.37V27.58C121.562 27.7067 121.522 27.81 121.442 27.89C121.362 27.9633 121.266 28 121.152 28C121.092 28 121.032 27.99 120.972 27.97C120.912 27.9433 120.866 27.91 120.832 27.87L116.552 22.21L116.752 22.09V27.63C116.752 27.7367 116.716 27.8267 116.642 27.9C116.576 27.9667 116.486 28 116.372 28C116.266 28 116.179 27.9667 116.112 27.9C116.046 27.8267 116.012 27.7367 116.012 27.63V21.4C116.012 21.28 116.049 21.1833 116.122 21.11C116.202 21.0367 116.296 21 116.402 21C116.462 21 116.522 21.0133 116.582 21.04C116.649 21.06 116.699 21.0933 116.732 21.14L120.952 26.72L120.822 26.88V21.37C120.822 21.2633 120.856 21.1767 120.922 21.11C120.996 21.0367 121.086 21 121.192 21ZM127.777 27.21C127.89 27.21 127.987 27.25 128.067 27.33C128.147 27.4033 128.187 27.4967 128.187 27.61C128.187 27.7233 128.147 27.8167 128.067 27.89C127.987 27.9633 127.89 28 127.777 28H124.317C124.204 28 124.107 27.96 124.027 27.88C123.954 27.8 123.917 27.7033 123.917 27.59V21.4C123.917 21.2867 123.957 21.1933 124.037 21.12C124.117 21.04 124.217 21 124.337 21C124.45 21 124.547 21.04 124.627 21.12C124.707 21.1933 124.747 21.2867 124.747 21.4V27.39L124.547 27.21H127.777ZM136.149 24.5C136.149 25.0133 136.066 25.49 135.899 25.93C135.733 26.3633 135.499 26.7433 135.199 27.07C134.899 27.3967 134.543 27.65 134.129 27.83C133.716 28.01 133.266 28.1 132.779 28.1C132.286 28.1 131.833 28.01 131.419 27.83C131.013 27.65 130.659 27.3967 130.359 27.07C130.059 26.7433 129.826 26.3633 129.659 25.93C129.493 25.49 129.409 25.0133 129.409 24.5C129.409 23.98 129.493 23.5033 129.659 23.07C129.826 22.63 130.059 22.25 130.359 21.93C130.659 21.6033 131.013 21.35 131.419 21.17C131.833 20.99 132.286 20.9 132.779 20.9C133.266 20.9 133.716 20.99 134.129 21.17C134.543 21.35 134.899 21.6033 135.199 21.93C135.499 22.25 135.733 22.63 135.899 23.07C136.066 23.5033 136.149 23.98 136.149 24.5ZM135.289 24.5C135.289 23.9533 135.179 23.47 134.959 23.05C134.746 22.63 134.453 22.3 134.079 22.06C133.706 21.82 133.273 21.7 132.779 21.7C132.286 21.7 131.849 21.82 131.469 22.06C131.096 22.3 130.803 22.63 130.589 23.05C130.376 23.47 130.269 23.9533 130.269 24.5C130.269 25.04 130.376 25.5233 130.589 25.95C130.803 26.37 131.096 26.7 131.469 26.94C131.849 27.18 132.286 27.3 132.779 27.3C133.273 27.3 133.706 27.18 134.079 26.94C134.453 26.7 134.746 26.37 134.959 25.95C135.179 25.5233 135.289 25.04 135.289 24.5ZM140.447 22.04L138.097 27.76C138.07 27.84 138.024 27.9033 137.957 27.95C137.89 27.9967 137.82 28.02 137.747 28.02C137.62 28.02 137.527 27.9867 137.467 27.92C137.407 27.8533 137.377 27.7733 137.377 27.68C137.37 27.6333 137.377 27.5833 137.397 27.53L139.987 21.23C140.02 21.1367 140.07 21.07 140.137 21.03C140.21 20.9833 140.29 20.9633 140.377 20.97C140.464 20.97 140.54 20.9933 140.607 21.04C140.68 21.0867 140.73 21.15 140.757 21.23L143.337 27.47C143.357 27.5233 143.367 27.5767 143.367 27.63C143.367 27.75 143.327 27.8467 143.247 27.92C143.167 27.9867 143.077 28.02 142.977 28.02C142.897 28.02 142.824 27.9967 142.757 27.95C142.69 27.9033 142.64 27.8367 142.607 27.75L140.227 22.03L140.447 22.04ZM138.597 26.13L138.937 25.35H141.907L142.057 26.13H138.597ZM147.963 21C148.449 21 148.876 21.0933 149.243 21.28C149.616 21.46 149.926 21.7133 150.173 22.04C150.419 22.3667 150.603 22.7433 150.723 23.17C150.849 23.59 150.913 24.0333 150.913 24.5C150.913 25.14 150.803 25.7267 150.583 26.26C150.363 26.7867 150.036 27.21 149.603 27.53C149.169 27.8433 148.623 28 147.963 28H145.463C145.349 28 145.253 27.96 145.173 27.88C145.099 27.8 145.063 27.7033 145.063 27.59V21.4C145.063 21.2867 145.099 21.1933 145.173 21.12C145.253 21.04 145.349 21 145.463 21H147.963ZM147.863 27.22C148.376 27.22 148.793 27.0967 149.113 26.85C149.439 26.6033 149.676 26.2733 149.823 25.86C149.976 25.4467 150.053 24.9933 150.053 24.5C150.053 24.14 150.009 23.7967 149.923 23.47C149.843 23.1367 149.713 22.8433 149.533 22.59C149.359 22.3367 149.133 22.1367 148.853 21.99C148.579 21.8433 148.249 21.77 147.863 21.77H145.813L145.893 21.69V27.32L145.833 27.22H147.863ZM162.504 24.5C162.504 25.0133 162.421 25.49 162.254 25.93C162.088 26.3633 161.854 26.7433 161.554 27.07C161.254 27.3967 160.898 27.65 160.484 27.83C160.071 28.01 159.621 28.1 159.134 28.1C158.641 28.1 158.188 28.01 157.774 27.83C157.368 27.65 157.014 27.3967 156.714 27.07C156.414 26.7433 156.181 26.3633 156.014 25.93C155.848 25.49 155.764 25.0133 155.764 24.5C155.764 23.98 155.848 23.5033 156.014 23.07C156.181 22.63 156.414 22.25 156.714 21.93C157.014 21.6033 157.368 21.35 157.774 21.17C158.188 20.99 158.641 20.9 159.134 20.9C159.621 20.9 160.071 20.99 160.484 21.17C160.898 21.35 161.254 21.6033 161.554 21.93C161.854 22.25 162.088 22.63 162.254 23.07C162.421 23.5033 162.504 23.98 162.504 24.5ZM161.644 24.5C161.644 23.9533 161.534 23.47 161.314 23.05C161.101 22.63 160.808 22.3 160.434 22.06C160.061 21.82 159.628 21.7 159.134 21.7C158.641 21.7 158.204 21.82 157.824 22.06C157.451 22.3 157.158 22.63 156.944 23.05C156.731 23.47 156.624 23.9533 156.624 24.5C156.624 25.04 156.731 25.5233 156.944 25.95C157.158 26.37 157.451 26.7 157.824 26.94C158.204 27.18 158.641 27.3 159.134 27.3C159.628 27.3 160.061 27.18 160.434 26.94C160.808 26.7 161.101 26.37 161.314 25.95C161.534 25.5233 161.644 25.04 161.644 24.5ZM169.611 21C169.724 21 169.814 21.0367 169.881 21.11C169.948 21.1767 169.981 21.2633 169.981 21.37V27.58C169.981 27.7067 169.941 27.81 169.861 27.89C169.781 27.9633 169.684 28 169.571 28C169.511 28 169.451 27.99 169.391 27.97C169.331 27.9433 169.284 27.91 169.251 27.87L164.971 22.21L165.171 22.09V27.63C165.171 27.7367 165.134 27.8267 165.061 27.9C164.994 27.9667 164.904 28 164.791 28C164.684 28 164.598 27.9667 164.531 27.9C164.464 27.8267 164.431 27.7367 164.431 27.63V21.4C164.431 21.28 164.468 21.1833 164.541 21.11C164.621 21.0367 164.714 21 164.821 21C164.881 21 164.941 21.0133 165.001 21.04C165.068 21.06 165.118 21.0933 165.151 21.14L169.371 26.72L169.241 26.88V21.37C169.241 21.2633 169.274 21.1767 169.341 21.11C169.414 21.0367 169.504 21 169.611 21ZM177.86 28C177.74 28 177.64 27.96 177.56 27.88C177.48 27.8 177.44 27.7033 177.44 27.59V21.41H178.29V27.59C178.29 27.7033 178.25 27.8 178.17 27.88C178.09 27.96 177.986 28 177.86 28ZM175.54 21.76C175.426 21.76 175.33 21.7267 175.25 21.66C175.176 21.5867 175.14 21.4933 175.14 21.38C175.14 21.2667 175.176 21.1767 175.25 21.11C175.33 21.0367 175.426 21 175.54 21H180.19C180.303 21 180.4 21.0367 180.48 21.11C180.56 21.1767 180.6 21.2667 180.6 21.38C180.6 21.5 180.56 21.5933 180.48 21.66C180.4 21.7267 180.303 21.76 180.19 21.76H175.54ZM182.823 21C182.936 21 183.033 21.04 183.113 21.12C183.193 21.1933 183.233 21.29 183.233 21.41V27.59C183.233 27.7033 183.19 27.8 183.103 27.88C183.023 27.96 182.926 28 182.813 28C182.686 28 182.586 27.96 182.513 27.88C182.44 27.8 182.403 27.7033 182.403 27.59V21.41C182.403 21.29 182.443 21.1933 182.523 21.12C182.603 21.04 182.703 21 182.823 21ZM187.433 21C187.553 21 187.65 21.04 187.723 21.12C187.803 21.1933 187.843 21.29 187.843 21.41V27.59C187.843 27.7033 187.803 27.8 187.723 27.88C187.643 27.96 187.543 28 187.423 28C187.31 28 187.213 27.96 187.133 27.88C187.053 27.8 187.013 27.7033 187.013 27.59V21.41C187.013 21.29 187.053 21.1933 187.133 21.12C187.22 21.04 187.32 21 187.433 21ZM182.783 24.05H187.443L187.433 24.83H182.753L182.783 24.05ZM190.6 21H194.16C194.273 21 194.37 21.0367 194.45 21.11C194.53 21.1833 194.57 21.2767 194.57 21.39C194.57 21.5033 194.53 21.5967 194.45 21.67C194.37 21.7367 194.273 21.77 194.16 21.77H190.94L191.03 21.6V24.13L190.93 24.02H193.71C193.823 24.02 193.92 24.0567 194 24.13C194.08 24.2033 194.12 24.2967 194.12 24.41C194.12 24.5233 194.08 24.6167 194 24.69C193.92 24.7567 193.823 24.79 193.71 24.79H190.96L191.03 24.7V27.29L190.97 27.22H194.16C194.273 27.22 194.37 27.26 194.45 27.34C194.53 27.42 194.57 27.51 194.57 27.61C194.57 27.7233 194.53 27.8167 194.45 27.89C194.37 27.9633 194.273 28 194.16 28H190.6C190.487 28 190.39 27.96 190.31 27.88C190.237 27.8 190.2 27.7033 190.2 27.59V21.4C190.2 21.2867 190.237 21.1933 190.31 21.12C190.39 21.04 190.487 21 190.6 21Z" fill="white"/>
<path d="M99.715 47.12H93.795L92.555 50H88.855L95.195 36.66H98.475L104.795 50H101.055L99.715 47.12ZM98.475 44.42L97.475 42.34C97.095 41.52 96.915 41.1 96.655 40.48C96.395 41.12 96.335 41.28 95.875 42.38L94.995 44.42H98.475ZM106.114 53.46V40.14H109.274V41.08C110.274 40.2 111.334 39.8 112.654 39.8C115.674 39.8 117.934 42.06 117.934 45.08C117.934 48.08 115.674 50.34 112.654 50.34C111.334 50.34 110.254 49.94 109.274 49.06V53.46H106.114ZM111.914 42.06C110.334 42.06 109.034 43.4 109.034 45.02C109.034 46.74 110.294 48.08 111.894 48.08C113.514 48.08 114.794 46.76 114.794 45.06C114.794 43.4 113.514 42.06 111.914 42.06ZM120.176 53.46V40.14H123.336V41.08C124.336 40.2 125.396 39.8 126.716 39.8C129.736 39.8 131.996 42.06 131.996 45.08C131.996 48.08 129.736 50.34 126.716 50.34C125.396 50.34 124.316 49.94 123.336 49.06V53.46H120.176ZM125.976 42.06C124.396 42.06 123.096 43.4 123.096 45.02C123.096 46.74 124.356 48.08 125.956 48.08C127.576 48.08 128.856 46.76 128.856 45.06C128.856 43.4 127.576 42.06 125.976 42.06ZM153.775 40.64H150.255C150.015 39.84 149.735 39.44 149.135 39.12C148.515 38.8 147.775 38.66 146.795 38.66C144.815 38.66 143.635 39.26 143.635 40.26C143.635 41.02 144.155 41.36 145.575 41.5L148.815 41.84C150.535 42 151.455 42.22 152.355 42.68C153.575 43.28 154.335 44.52 154.335 45.92C154.335 47.48 153.415 48.88 151.915 49.6C150.635 50.22 149.135 50.48 146.975 50.48C144.255 50.48 142.335 49.96 141.115 48.9C140.175 48.1 139.835 47.22 139.715 45.46H143.215C143.315 46.34 143.555 46.8 144.095 47.22C144.835 47.78 145.755 48.02 147.135 48.02C149.315 48.02 150.575 47.38 150.575 46.28C150.575 45.4 149.915 44.96 148.355 44.8L144.595 44.42C141.675 44.12 140.095 42.8 140.095 40.68C140.095 37.9 142.655 36.2 146.815 36.2C148.915 36.2 150.815 36.68 152.015 37.5C153.055 38.22 153.515 39.06 153.775 40.64ZM160.319 37.34V40.14H162.639V42.4H160.319V46.52C160.319 47.38 160.619 47.62 161.659 47.6H162.559V50H160.599C157.759 50 157.119 49.34 157.159 46.48V42.4H155.739V40.14H157.159V37.34H160.319ZM170.218 39.74C172.098 39.74 173.758 40.3 174.918 41.3C175.998 42.26 176.538 43.52 176.538 45.16C176.538 48.26 173.938 50.4 170.178 50.4C166.358 50.4 163.818 48.28 163.818 45.06C163.818 41.86 166.358 39.74 170.218 39.74ZM170.198 42.08C168.438 42.08 167.218 43.3 167.218 45.06C167.218 46.82 168.438 48.06 170.178 48.06C171.878 48.06 173.138 46.82 173.138 45.12C173.138 43.32 171.938 42.08 170.198 42.08ZM178.77 40.14H181.93V41.58C182.81 40.44 183.87 39.9 185.27 39.9C185.45 39.9 185.59 39.92 185.91 39.94V42.6C185.47 42.48 185.23 42.46 184.89 42.46C183.07 42.46 181.93 43.58 181.93 45.38V50H178.77V40.14ZM199.235 45.7H190.435C190.455 47.24 191.555 48.2 193.255 48.2C194.475 48.2 195.235 47.78 195.615 46.88H199.115C198.795 47.78 198.375 48.36 197.575 49.02C196.435 49.96 195.095 50.4 193.355 50.4C191.275 50.4 189.635 49.84 188.615 48.8C187.715 47.88 187.235 46.6 187.235 45.14C187.235 41.84 189.555 39.74 193.235 39.74C195.715 39.74 197.575 40.66 198.475 42.36C198.995 43.32 199.195 44.26 199.235 45.7ZM190.535 43.74H195.855C195.535 42.38 194.655 41.7 193.195 41.7C191.735 41.7 190.835 42.38 190.535 43.74Z" fill="white"/>
<defs>
<linearGradient id="paint0_linear_205_607" x1="32.2296" y1="-65.1173" x2="196.694" y2="8.47804" gradientUnits="userSpaceOnUse">
<stop stop-color="#F7C41F"/>
<stop offset="1" stop-color="#917312" stop-opacity="0"/>
</linearGradient>
<clipPath id="clip0_205_607">
<rect width="32" height="32" fill="white" transform="translate(40.5 22.5)"/>
</clipPath>
</defs>
</svg>
