<svg width="123" height="123" viewBox="0 0 123 123" fill="none" xmlns="http://www.w3.org/2000/svg">
<g clip-path="url(#clip0_42_2)">
<path fill-rule="evenodd" clip-rule="evenodd" d="M61.44 0C95.373 0 122.881 27.507 122.881 61.439C122.881 95.372 95.373 122.879 61.44 122.879C27.508 122.88 0 95.372 0 61.439C0 27.507 27.508 0 61.44 0ZM81.719 36.226C83.082 34.863 85.291 34.863 86.655 36.226C88.018 37.589 88.018 39.799 86.655 41.162L66.375 61.439L86.654 81.717C88.017 83.08 88.017 85.29 86.654 86.654C85.291 88.016 83.082 88.016 81.718 86.654L61.44 66.376L41.162 86.654C39.8 88.016 37.589 88.016 36.226 86.654C34.863 85.291 34.863 83.081 36.226 81.717L56.504 61.439L36.226 41.162C34.863 39.799 34.863 37.589 36.226 36.226C37.589 34.863 39.799 34.863 41.162 36.226L61.44 56.504L81.719 36.226Z" fill="white"/>
</g>
<defs>
<clipPath id="clip0_42_2">
<rect width="122.881" height="122.88" fill="white"/>
</clipPath>
</defs>
</svg>
