<svg width="48" height="49" viewBox="0 0 48 49" fill="none" xmlns="http://www.w3.org/2000/svg">
<rect y="0.5" width="48" height="48" rx="24" fill="#181927"/>
<path d="M29.7098 26.62L25.4098 30.91C25.0351 31.2825 24.5282 31.4916 23.9998 31.4916C23.4714 31.4916 22.9645 31.2825 22.5898 30.91L18.2898 26.62C18.1036 26.4326 17.999 26.1792 17.999 25.915C17.999 25.6508 18.1036 25.3974 18.2898 25.21C18.3828 25.1163 18.4934 25.0419 18.6152 24.9911C18.7371 24.9403 18.8678 24.9142 18.9998 24.9142C19.1318 24.9142 19.2625 24.9403 19.3844 24.9911C19.5063 25.0419 19.6169 25.1163 19.7098 25.21L22.9998 28.5V17.5C22.9998 17.2348 23.1052 16.9804 23.2927 16.7929C23.4802 16.6053 23.7346 16.5 23.9998 16.5C24.265 16.5 24.5194 16.6053 24.7069 16.7929C24.8945 16.9804 24.9998 17.2348 24.9998 17.5V28.5L28.2898 25.21C28.4768 25.0217 28.7309 24.9154 28.9963 24.9144C29.2616 24.9135 29.5165 25.018 29.7048 25.205C29.8931 25.392 29.9994 25.6461 30.0004 25.9115C30.0013 26.1768 29.8968 26.4317 29.7098 26.62Z" fill="white"/>
</svg>
