<svg width="40" height="41" viewBox="0 0 40 41" fill="none" xmlns="http://www.w3.org/2000/svg">
<path d="M19.9998 1.40918C18.9957 1.40918 18.1816 2.22324 18.1816 3.22736V10.5001C18.1816 11.5042 18.9957 12.3183 19.9998 12.3183C21.0039 12.3183 21.818 11.5042 21.818 10.5001V3.22736C21.818 2.22324 21.0039 1.40918 19.9998 1.40918Z" fill="white"/>
<path d="M19.9998 32.3184C18.9957 32.3184 18.1816 33.1324 18.1816 34.1365V37.7729C18.1816 38.777 18.9957 39.5911 19.9998 39.5911C21.0039 39.5911 21.818 38.777 21.818 37.7729V34.1365C21.818 33.1324 21.0039 32.3184 19.9998 32.3184Z" fill="white"/>
<path d="M38.1817 19.5911H30.909C29.9049 19.5911 29.0908 20.4051 29.0908 21.4092C29.0908 22.4134 29.9049 23.2274 30.909 23.2274H38.1817C39.1859 23.2274 39.9999 22.4134 39.9999 21.4092C39.9999 20.4051 39.1859 19.5911 38.1817 19.5911Z" fill="white"/>
<path d="M10.9091 21.4092C10.9091 20.4051 10.095 19.5911 9.09091 19.5911H1.81818C0.814061 19.5911 0 20.4051 0 21.4092C0 22.4134 0.814061 23.2274 1.81818 23.2274H9.09091C10.095 23.2274 10.9091 22.4134 10.9091 21.4092Z" fill="white"/>
<path d="M34.142 7.26692C33.4321 6.55686 32.2808 6.55686 31.5707 7.26692L26.4281 12.4096C25.718 13.1196 25.718 14.2708 26.4281 14.9809C26.7831 15.3359 27.2484 15.5135 27.7136 15.5135C28.179 15.5135 28.6443 15.336 28.9993 14.9809L34.142 9.83819C34.8521 9.12813 34.8521 7.97698 34.142 7.26692Z" fill="white"/>
<path d="M11.0001 27.8375L5.85765 32.9801C5.14771 33.6902 5.14771 34.8414 5.85765 35.5514C6.21268 35.9064 6.67801 36.0839 7.14335 36.0839C7.60868 36.0839 8.07401 35.9064 8.42904 35.5514L13.5716 30.4087C14.2815 29.6987 14.2815 28.5475 13.5716 27.8375C12.8614 27.1274 11.7103 27.1274 11.0001 27.8375Z" fill="white"/>
<path d="M8.42901 7.26712C7.71895 6.55706 6.5678 6.55718 5.85774 7.26712C5.14768 7.97718 5.14768 9.12833 5.85774 9.83839L11.0003 14.9811C11.3554 15.3361 11.8207 15.5137 12.286 15.5137C12.7512 15.5137 13.2167 15.3361 13.5716 14.9812C14.2816 14.2711 14.2816 13.12 13.5716 12.4099L8.42901 7.26712Z" fill="white"/>
</svg>
