<svg width="123" height="104" viewBox="0 0 123 104" fill="none" xmlns="http://www.w3.org/2000/svg">
<g clip-path="url(#clip0_41_2)">
<path d="M26 0H96.87C104.02 0 110.52 2.93 115.23 7.64L115.45 7.88C120.03 12.57 122.87 18.98 122.87 26.01V77.17C122.87 84.32 119.94 90.82 115.23 95.53C110.52 100.24 104.02 103.17 96.87 103.17H26C18.86 103.17 12.36 100.24 7.65 95.53H7.64C2.93 90.82 0 84.32 0 77.16V26C0 18.87 2.92 12.37 7.64 7.65L7.66 7.62C12.38 2.92 18.87 0 26 0ZM41.31 29.74H81.57C83.82 29.74 85.66 31.58 85.66 33.83C85.66 36.08 83.82 37.92 81.57 37.92H41.31C39.06 37.92 37.22 36.08 37.22 33.83C37.22 31.58 39.06 29.74 41.31 29.74ZM41.31 65.25H81.57C83.82 65.25 85.66 67.09 85.66 69.34C85.66 71.59 83.82 73.43 81.57 73.43H41.31C39.06 73.43 37.22 71.59 37.22 69.34C37.22 67.09 39.06 65.25 41.31 65.25ZM41.31 47.5H81.57C83.82 47.5 85.66 49.34 85.66 51.59C85.66 53.84 83.82 55.68 81.57 55.68H41.31C39.06 55.68 37.22 53.84 37.22 51.59C37.22 49.34 39.06 47.5 41.31 47.5ZM96.88 8.2H26C21.1 8.2 16.65 10.2 13.43 13.42L13.41 13.44C10.2 16.65 8.2 21.1 8.2 26V77.16C8.2 82.05 10.21 86.5 13.43 89.72L13.42 89.73C16.65 92.95 21.1 94.96 25.99 94.96H96.86C101.74 94.96 106.19 92.95 109.42 89.72C112.65 86.49 114.66 82.04 114.66 77.16V26C114.66 21.2 112.73 16.83 109.62 13.61L109.43 13.43C106.21 10.21 101.77 8.2 96.88 8.2Z" fill="white"/>
</g>
<defs>
<clipPath id="clip0_41_2">
<rect width="122.88" height="103.17" fill="white"/>
</clipPath>
</defs>
</svg>
