<svg width="215" height="57" viewBox="0 0 215 57" fill="none" xmlns="http://www.w3.org/2000/svg">
<g clip-path="url(#clip0_96_292)">
<path d="M39.8975 23.4764C36.1802 21.3972 30.2137 18.0586 20.9591 12.8767C20.3352 12.4647 19.6173 12.4107 18.9971 12.6206L34.8752 28.4988L39.8975 23.4764Z" fill="#32BBFF"/>
<path d="M18.9975 12.6206C18.8812 12.66 18.7681 12.7075 18.6599 12.7649C17.975 13.1354 17.4717 13.8483 17.4717 14.75V42.2475C17.4717 43.1492 17.9749 43.8622 18.6599 44.2326C18.7679 44.2899 18.881 44.3376 18.9971 44.3772L34.8757 28.4988L18.9975 12.6206Z" fill="#32BBFF"/>
<path d="M34.8756 28.4988L18.9971 44.3772C19.6175 44.5887 20.3354 44.5389 20.9595 44.1208C29.9344 39.0952 35.8337 35.796 39.594 33.6992C39.6987 33.6404 39.8013 33.5829 39.9027 33.5259L34.8756 28.4988Z" fill="#32BBFF"/>
<path d="M17.4717 28.4988V42.2476C17.4717 43.1492 17.9749 43.8622 18.6599 44.2326C18.7679 44.2899 18.881 44.3376 18.9971 44.3772L34.8757 28.4988H17.4717Z" fill="#2C9FD9"/>
<path d="M20.9598 12.8767C20.2188 12.3875 19.3451 12.4014 18.6602 12.7649L34.6349 28.7397L39.8981 23.4765C36.1808 21.3973 30.2143 18.0586 20.9598 12.8767Z" fill="#29CC5E"/>
<path d="M34.635 28.2579L18.6602 44.2327C19.3452 44.5961 20.2188 44.6171 20.9598 44.1208C29.9347 39.0952 35.8339 35.7961 39.5943 33.6992C39.699 33.6404 39.8016 33.5829 39.903 33.5259L34.635 28.2579Z" fill="#D93F21"/>
<path d="M46.5278 28.4988C46.5278 27.7369 46.1433 26.968 45.3814 26.5417C45.3814 26.5417 43.9564 25.7466 39.5888 23.3036L34.3936 28.4988L39.5938 33.6991C43.9136 31.2737 45.3813 30.4559 45.3813 30.4559C46.1433 30.0295 46.5278 29.2607 46.5278 28.4988Z" fill="#FFD500"/>
<path d="M45.3814 30.4559C46.1433 30.0295 46.5278 29.2607 46.5278 28.4988H34.3936L39.5938 33.6991C43.9136 31.2737 45.3814 30.4559 45.3814 30.4559Z" fill="#FFAA00"/>
</g>
<path d="M68.21 18.1C67.6967 18.1 67.22 18.01 66.78 17.83C66.3467 17.6433 65.9634 17.3867 65.63 17.06C65.3034 16.7333 65.0467 16.3533 64.86 15.92C64.68 15.48 64.59 15.0067 64.59 14.5C64.59 13.9867 64.68 13.5133 64.86 13.08C65.0467 12.64 65.3034 12.2567 65.63 11.93C65.9634 11.6033 66.3467 11.35 66.78 11.17C67.22 10.99 67.6967 10.9 68.21 10.9C68.55 10.9 68.8767 10.94 69.19 11.02C69.51 11.0933 69.8 11.21 70.06 11.37C70.1267 11.4033 70.1734 11.45 70.2 11.51C70.2334 11.57 70.25 11.6333 70.25 11.7C70.25 11.8133 70.21 11.91 70.13 11.99C70.0567 12.07 69.97 12.11 69.87 12.11C69.83 12.11 69.79 12.1033 69.75 12.09C69.7167 12.0767 69.68 12.0633 69.64 12.05C69.4334 11.9433 69.21 11.86 68.97 11.8C68.73 11.7333 68.4767 11.7 68.21 11.7C67.6834 11.7 67.21 11.8233 66.79 12.07C66.3767 12.3167 66.05 12.65 65.81 13.07C65.57 13.49 65.45 13.9667 65.45 14.5C65.45 15.0267 65.57 15.5033 65.81 15.93C66.05 16.35 66.3767 16.6833 66.79 16.93C67.21 17.1767 67.6834 17.3 68.21 17.3C68.4767 17.3 68.75 17.2633 69.03 17.19C69.3167 17.1167 69.56 17.0233 69.76 16.91L69.69 17.15V15.04L69.85 15.18H68.32C68.2067 15.18 68.11 15.1433 68.03 15.07C67.9567 14.99 67.92 14.8933 67.92 14.78C67.92 14.6667 67.9567 14.5733 68.03 14.5C68.11 14.42 68.2067 14.38 68.32 14.38H70.14C70.26 14.38 70.3567 14.42 70.43 14.5C70.5034 14.58 70.54 14.6767 70.54 14.79V17.1C70.54 17.18 70.52 17.25 70.48 17.31C70.4467 17.37 70.4 17.42 70.34 17.46C70.04 17.6533 69.7067 17.81 69.34 17.93C68.98 18.0433 68.6034 18.1 68.21 18.1ZM72.9732 11H76.5332C76.6465 11 76.7432 11.0367 76.8232 11.11C76.9032 11.1833 76.9432 11.2767 76.9432 11.39C76.9432 11.5033 76.9032 11.5967 76.8232 11.67C76.7432 11.7367 76.6465 11.77 76.5332 11.77H73.3132L73.4032 11.6V14.13L73.3032 14.02H76.0832C76.1965 14.02 76.2932 14.0567 76.3732 14.13C76.4532 14.2033 76.4932 14.2967 76.4932 14.41C76.4932 14.5233 76.4532 14.6167 76.3732 14.69C76.2932 14.7567 76.1965 14.79 76.0832 14.79H73.3332L73.4032 14.7V17.29L73.3432 17.22H76.5332C76.6465 17.22 76.7432 17.26 76.8232 17.34C76.9032 17.42 76.9432 17.51 76.9432 17.61C76.9432 17.7233 76.9032 17.8167 76.8232 17.89C76.7432 17.9633 76.6465 18 76.5332 18H72.9732C72.8598 18 72.7632 17.96 72.6832 17.88C72.6098 17.8 72.5732 17.7033 72.5732 17.59V11.4C72.5732 11.2867 72.6098 11.1933 72.6832 11.12C72.7632 11.04 72.8598 11 72.9732 11ZM81.0463 18C80.9263 18 80.8263 17.96 80.7463 17.88C80.6663 17.8 80.6263 17.7033 80.6263 17.59V11.41H81.4763V17.59C81.4763 17.7033 81.4363 17.8 81.3563 17.88C81.2763 17.96 81.173 18 81.0463 18ZM78.7263 11.76C78.613 11.76 78.5163 11.7267 78.4363 11.66C78.363 11.5867 78.3263 11.4933 78.3263 11.38C78.3263 11.2667 78.363 11.1767 78.4363 11.11C78.5163 11.0367 78.613 11 78.7263 11H83.3763C83.4896 11 83.5863 11.0367 83.6663 11.11C83.7463 11.1767 83.7863 11.2667 83.7863 11.38C83.7863 11.5 83.7463 11.5933 83.6663 11.66C83.5863 11.7267 83.4896 11.76 83.3763 11.76H78.7263ZM89.7735 17.59C89.7735 17.7033 89.7301 17.8 89.6435 17.88C89.5635 17.96 89.4668 18 89.3535 18C89.2268 18 89.1268 17.96 89.0535 17.88C88.9801 17.8 88.9435 17.7033 88.9435 17.59V11.41C88.9435 11.29 88.9835 11.1933 89.0635 11.12C89.1435 11.04 89.2435 11 89.3635 11C89.4768 11 89.5735 11.04 89.6535 11.12C89.7335 11.1933 89.7735 11.29 89.7735 11.41V17.59ZM94.3014 18C94.1814 18 94.0814 17.96 94.0014 17.88C93.9214 17.8 93.8814 17.7033 93.8814 17.59V11.41H94.7314V17.59C94.7314 17.7033 94.6914 17.8 94.6114 17.88C94.5314 17.96 94.428 18 94.3014 18ZM91.9814 11.76C91.868 11.76 91.7714 11.7267 91.6914 11.66C91.618 11.5867 91.5814 11.4933 91.5814 11.38C91.5814 11.2667 91.618 11.1767 91.6914 11.11C91.7714 11.0367 91.868 11 91.9814 11H96.6314C96.7447 11 96.8414 11.0367 96.9214 11.11C97.0014 11.1767 97.0414 11.2667 97.0414 11.38C97.0414 11.5 97.0014 11.5933 96.9214 11.66C96.8414 11.7267 96.7447 11.76 96.6314 11.76H91.9814ZM108.509 14.5C108.509 15.0133 108.425 15.49 108.259 15.93C108.092 16.3633 107.859 16.7433 107.559 17.07C107.259 17.3967 106.902 17.65 106.489 17.83C106.075 18.01 105.625 18.1 105.139 18.1C104.645 18.1 104.192 18.01 103.779 17.83C103.372 17.65 103.019 17.3967 102.719 17.07C102.419 16.7433 102.185 16.3633 102.019 15.93C101.852 15.49 101.769 15.0133 101.769 14.5C101.769 13.98 101.852 13.5033 102.019 13.07C102.185 12.63 102.419 12.25 102.719 11.93C103.019 11.6033 103.372 11.35 103.779 11.17C104.192 10.99 104.645 10.9 105.139 10.9C105.625 10.9 106.075 10.99 106.489 11.17C106.902 11.35 107.259 11.6033 107.559 11.93C107.859 12.25 108.092 12.63 108.259 13.07C108.425 13.5033 108.509 13.98 108.509 14.5ZM107.649 14.5C107.649 13.9533 107.539 13.47 107.319 13.05C107.105 12.63 106.812 12.3 106.439 12.06C106.065 11.82 105.632 11.7 105.139 11.7C104.645 11.7 104.209 11.82 103.829 12.06C103.455 12.3 103.162 12.63 102.949 13.05C102.735 13.47 102.629 13.9533 102.629 14.5C102.629 15.04 102.735 15.5233 102.949 15.95C103.162 16.37 103.455 16.7 103.829 16.94C104.209 17.18 104.645 17.3 105.139 17.3C105.632 17.3 106.065 17.18 106.439 16.94C106.812 16.7 107.105 16.37 107.319 15.95C107.539 15.5233 107.649 15.04 107.649 14.5ZM115.615 11C115.729 11 115.819 11.0367 115.885 11.11C115.952 11.1767 115.985 11.2633 115.985 11.37V17.58C115.985 17.7067 115.945 17.81 115.865 17.89C115.785 17.9633 115.689 18 115.575 18C115.515 18 115.455 17.99 115.395 17.97C115.335 17.9433 115.289 17.91 115.255 17.87L110.975 12.21L111.175 12.09V17.63C111.175 17.7367 111.139 17.8267 111.065 17.9C110.999 17.9667 110.909 18 110.795 18C110.689 18 110.602 17.9667 110.535 17.9C110.469 17.8267 110.435 17.7367 110.435 17.63V11.4C110.435 11.28 110.472 11.1833 110.545 11.11C110.625 11.0367 110.719 11 110.825 11C110.885 11 110.945 11.0133 111.005 11.04C111.072 11.06 111.122 11.0933 111.155 11.14L115.375 16.72L115.245 16.88V11.37C115.245 11.2633 115.279 11.1767 115.345 11.11C115.419 11.0367 115.509 11 115.615 11Z" fill="white"/>
<path d="M80.7251 40H78.3651L78.1451 38.6C76.2651 39.98 74.8651 40.46 72.7651 40.46C68.2251 40.46 65.1451 37.64 65.1451 33.48C65.1451 31.44 65.9251 29.6 67.3451 28.28C68.8051 26.9 70.8651 26.2 73.4051 26.2C77.3451 26.2 79.9251 27.9 80.7851 31.08H77.1851C76.5451 29.5 75.1851 28.66 73.2651 28.66C70.6251 28.66 68.6851 30.6 68.6851 33.28C68.6851 35.9 70.6451 37.86 73.2651 37.86C75.1051 37.86 76.5251 37.02 77.4851 35.36H74.1251V32.66H80.7251V40ZM89.532 29.74C91.412 29.74 93.072 30.3 94.232 31.3C95.312 32.26 95.852 33.52 95.852 35.16C95.852 38.26 93.252 40.4 89.492 40.4C85.672 40.4 83.132 38.28 83.132 35.06C83.132 31.86 85.672 29.74 89.532 29.74ZM89.512 32.08C87.752 32.08 86.532 33.3 86.532 35.06C86.532 36.82 87.752 38.06 89.492 38.06C91.192 38.06 92.452 36.82 92.452 35.12C92.452 33.32 91.252 32.08 89.512 32.08ZM104.005 29.74C105.885 29.74 107.545 30.3 108.705 31.3C109.785 32.26 110.325 33.52 110.325 35.16C110.325 38.26 107.725 40.4 103.965 40.4C100.145 40.4 97.6046 38.28 97.6046 35.06C97.6046 31.86 100.145 29.74 104.005 29.74ZM103.985 32.08C102.225 32.08 101.005 33.3 101.005 35.06C101.005 36.82 102.225 38.06 103.965 38.06C105.665 38.06 106.925 36.82 106.925 35.12C106.925 33.32 105.725 32.08 103.985 32.08ZM120.838 30.14H123.998V38.24C123.998 40.58 123.638 41.7 122.558 42.6C121.538 43.48 120.138 43.86 118.018 43.86C115.718 43.86 114.138 43.46 113.258 42.64C112.638 42.06 112.398 41.48 112.398 40.42H115.938C116.058 41.34 116.758 41.76 118.138 41.76C118.998 41.76 119.678 41.56 120.178 41.18C120.698 40.78 120.838 40.34 120.838 39.28V38.58C119.618 39.56 118.778 39.86 117.378 39.86C114.218 39.86 112.078 37.84 112.078 34.84C112.078 31.82 114.218 29.8 117.378 29.8C118.758 29.8 119.618 30.12 120.838 31.08V30.14ZM118.158 32.16C116.478 32.16 115.218 33.3 115.218 34.82C115.218 36.34 116.498 37.5 118.138 37.5C119.758 37.5 121.058 36.34 121.058 34.88C121.058 33.34 119.798 32.16 118.158 32.16ZM129.995 26.66V40H126.835V26.66H129.995ZM144.234 35.7H135.434C135.454 37.24 136.554 38.2 138.254 38.2C139.474 38.2 140.234 37.78 140.614 36.88H144.114C143.794 37.78 143.374 38.36 142.574 39.02C141.434 39.96 140.094 40.4 138.354 40.4C136.274 40.4 134.634 39.84 133.614 38.8C132.714 37.88 132.234 36.6 132.234 35.14C132.234 31.84 134.554 29.74 138.234 29.74C140.714 29.74 142.574 30.66 143.474 32.36C143.994 33.32 144.194 34.26 144.234 35.7ZM135.534 33.74H140.854C140.534 32.38 139.654 31.7 138.194 31.7C136.734 31.7 135.834 32.38 135.534 33.74ZM152.639 40V26.66H160.679C162.059 26.66 163.079 26.94 163.939 27.54C165.119 28.38 165.819 29.74 165.819 31.22C165.819 32.9 164.939 34.4 163.519 35.12C162.479 35.64 161.199 35.92 159.819 35.92H155.979V40H152.639ZM155.979 33.22H159.999C161.459 33.22 162.279 32.54 162.279 31.28C162.279 30.04 161.459 29.36 159.999 29.36H155.979V33.22ZM170.854 26.66V40H167.694V26.66H170.854ZM177.213 33.32H174.013C174.193 32.2 174.473 31.56 175.053 31.04C175.973 30.22 177.733 29.74 179.813 29.74C181.813 29.74 183.433 30.18 184.273 30.94C184.833 31.44 185.133 32.34 185.133 33.48V38.82C185.133 39.52 185.153 39.58 185.353 40H182.233C182.093 39.6 182.073 39.46 182.033 38.82C180.873 39.96 179.673 40.4 177.713 40.4C176.173 40.4 174.973 40.04 174.213 39.36C173.553 38.76 173.213 38 173.213 37.14C173.213 36.12 173.733 35.26 174.673 34.74C175.393 34.36 175.993 34.24 178.673 34C181.533 33.76 181.973 33.6 181.973 32.94C181.973 32.16 181.093 31.7 179.593 31.7C177.993 31.7 177.313 32.16 177.213 33.32ZM182.033 35.94V35.26C181.113 35.58 180.773 35.66 179.333 35.8C177.973 35.92 177.593 35.98 177.213 36.14C176.853 36.3 176.613 36.68 176.613 37.08C176.613 37.84 177.413 38.44 178.453 38.44C179.333 38.44 180.293 38.12 181.073 37.58C181.713 37.14 182.033 36.58 182.033 35.94ZM195.279 30.14H198.719L194.239 39.58C192.499 43.38 192.339 43.52 189.539 43.6H187.739V40.9H189.579C190.339 40.9 190.759 40.6 190.759 40.04C190.759 39.78 190.699 39.58 190.519 39.22L186.199 30.14H189.739L191.579 34.46C192.039 35.52 192.099 35.68 192.539 37.02C192.899 35.98 193.279 34.98 193.499 34.46L195.279 30.14Z" fill="white"/>
<defs>
<clipPath id="clip0_96_292">
<rect width="32" height="32" fill="white" transform="translate(16 12.5)"/>
</clipPath>
</defs>
</svg>
