<svg width="264" height="77" viewBox="0 0 264 77" fill="none" xmlns="http://www.w3.org/2000/svg">
<rect x="1.5" y="1" width="261" height="75" rx="37.5" fill="#1065EC" fill-opacity="0.12"/>
<rect x="1.5" y="1" width="261" height="75" rx="37.5" stroke="url(#paint0_linear_205_27)" stroke-width="2"/>
<g clip-path="url(#clip0_205_27)">
<path d="M64.3975 33.4764C60.6802 31.3972 54.7137 28.0586 45.4591 22.8767C44.8352 22.4647 44.1173 22.4107 43.4971 22.6206L59.3752 38.4988L64.3975 33.4764Z" fill="#32BBFF"/>
<path d="M43.4975 22.6206C43.3812 22.66 43.2681 22.7075 43.1599 22.7649C42.475 23.1354 41.9717 23.8483 41.9717 24.75V52.2475C41.9717 53.1492 42.4749 53.8622 43.1599 54.2326C43.2679 54.2899 43.381 54.3376 43.4971 54.3772L59.3757 38.4988L43.4975 22.6206Z" fill="#32BBFF"/>
<path d="M59.3756 38.4988L43.4971 54.3772C44.1175 54.5887 44.8354 54.5389 45.4595 54.1208C54.4344 49.0952 60.3337 45.796 64.094 43.6992C64.1987 43.6404 64.3013 43.5829 64.4027 43.5259L59.3756 38.4988Z" fill="#32BBFF"/>
<path d="M41.9717 38.4988V52.2476C41.9717 53.1492 42.4749 53.8622 43.1599 54.2326C43.2679 54.2899 43.381 54.3376 43.4971 54.3772L59.3757 38.4988H41.9717Z" fill="#2C9FD9"/>
<path d="M45.4598 22.8767C44.7188 22.3875 43.8451 22.4014 43.1602 22.7649L59.1349 38.7397L64.3981 33.4765C60.6808 31.3973 54.7143 28.0586 45.4598 22.8767Z" fill="#29CC5E"/>
<path d="M59.135 38.2579L43.1602 54.2327C43.8452 54.5961 44.7188 54.6171 45.4598 54.1208C54.4347 49.0952 60.3339 45.7961 64.0943 43.6992C64.199 43.6404 64.3016 43.5829 64.403 43.5259L59.135 38.2579Z" fill="#D93F21"/>
<path d="M71.0278 38.4988C71.0278 37.7369 70.6433 36.968 69.8814 36.5417C69.8814 36.5417 68.4564 35.7466 64.0888 33.3036L58.8936 38.4988L64.0938 43.6991C68.4136 41.2737 69.8813 40.4559 69.8813 40.4559C70.6433 40.0295 71.0278 39.2607 71.0278 38.4988Z" fill="#FFD500"/>
<path d="M69.8814 40.4559C70.6433 40.0295 71.0278 39.2607 71.0278 38.4988H58.8936L64.0938 43.6991C68.4136 41.2737 69.8814 40.4559 69.8814 40.4559Z" fill="#FFAA00"/>
</g>
<path d="M92.71 28.1C92.1967 28.1 91.72 28.01 91.28 27.83C90.8467 27.6433 90.4634 27.3867 90.13 27.06C89.8034 26.7333 89.5467 26.3533 89.36 25.92C89.18 25.48 89.09 25.0067 89.09 24.5C89.09 23.9867 89.18 23.5133 89.36 23.08C89.5467 22.64 89.8034 22.2567 90.13 21.93C90.4634 21.6033 90.8467 21.35 91.28 21.17C91.72 20.99 92.1967 20.9 92.71 20.9C93.05 20.9 93.3767 20.94 93.69 21.02C94.01 21.0933 94.3 21.21 94.56 21.37C94.6267 21.4033 94.6734 21.45 94.7 21.51C94.7334 21.57 94.75 21.6333 94.75 21.7C94.75 21.8133 94.71 21.91 94.63 21.99C94.5567 22.07 94.47 22.11 94.37 22.11C94.33 22.11 94.29 22.1033 94.25 22.09C94.2167 22.0767 94.18 22.0633 94.14 22.05C93.9334 21.9433 93.71 21.86 93.47 21.8C93.23 21.7333 92.9767 21.7 92.71 21.7C92.1834 21.7 91.71 21.8233 91.29 22.07C90.8767 22.3167 90.55 22.65 90.31 23.07C90.07 23.49 89.95 23.9667 89.95 24.5C89.95 25.0267 90.07 25.5033 90.31 25.93C90.55 26.35 90.8767 26.6833 91.29 26.93C91.71 27.1767 92.1834 27.3 92.71 27.3C92.9767 27.3 93.25 27.2633 93.53 27.19C93.8167 27.1167 94.06 27.0233 94.26 26.91L94.19 27.15V25.04L94.35 25.18H92.82C92.7067 25.18 92.61 25.1433 92.53 25.07C92.4567 24.99 92.42 24.8933 92.42 24.78C92.42 24.6667 92.4567 24.5733 92.53 24.5C92.61 24.42 92.7067 24.38 92.82 24.38H94.64C94.76 24.38 94.8567 24.42 94.93 24.5C95.0034 24.58 95.04 24.6767 95.04 24.79V27.1C95.04 27.18 95.02 27.25 94.98 27.31C94.9467 27.37 94.9 27.42 94.84 27.46C94.54 27.6533 94.2067 27.81 93.84 27.93C93.48 28.0433 93.1034 28.1 92.71 28.1ZM97.4732 21H101.033C101.146 21 101.243 21.0367 101.323 21.11C101.403 21.1833 101.443 21.2767 101.443 21.39C101.443 21.5033 101.403 21.5967 101.323 21.67C101.243 21.7367 101.146 21.77 101.033 21.77H97.8132L97.9032 21.6V24.13L97.8032 24.02H100.583C100.696 24.02 100.793 24.0567 100.873 24.13C100.953 24.2033 100.993 24.2967 100.993 24.41C100.993 24.5233 100.953 24.6167 100.873 24.69C100.793 24.7567 100.696 24.79 100.583 24.79H97.8332L97.9032 24.7V27.29L97.8432 27.22H101.033C101.146 27.22 101.243 27.26 101.323 27.34C101.403 27.42 101.443 27.51 101.443 27.61C101.443 27.7233 101.403 27.8167 101.323 27.89C101.243 27.9633 101.146 28 101.033 28H97.4732C97.3598 28 97.2632 27.96 97.1832 27.88C97.1098 27.8 97.0732 27.7033 97.0732 27.59V21.4C97.0732 21.2867 97.1098 21.1933 97.1832 21.12C97.2632 21.04 97.3598 21 97.4732 21ZM105.546 28C105.426 28 105.326 27.96 105.246 27.88C105.166 27.8 105.126 27.7033 105.126 27.59V21.41H105.976V27.59C105.976 27.7033 105.936 27.8 105.856 27.88C105.776 27.96 105.673 28 105.546 28ZM103.226 21.76C103.113 21.76 103.016 21.7267 102.936 21.66C102.863 21.5867 102.826 21.4933 102.826 21.38C102.826 21.2667 102.863 21.1767 102.936 21.11C103.016 21.0367 103.113 21 103.226 21H107.876C107.99 21 108.086 21.0367 108.166 21.11C108.246 21.1767 108.286 21.2667 108.286 21.38C108.286 21.5 108.246 21.5933 108.166 21.66C108.086 21.7267 107.99 21.76 107.876 21.76H103.226ZM114.273 27.59C114.273 27.7033 114.23 27.8 114.143 27.88C114.063 27.96 113.967 28 113.853 28C113.727 28 113.627 27.96 113.553 27.88C113.48 27.8 113.443 27.7033 113.443 27.59V21.41C113.443 21.29 113.483 21.1933 113.563 21.12C113.643 21.04 113.743 21 113.863 21C113.977 21 114.073 21.04 114.153 21.12C114.233 21.1933 114.273 21.29 114.273 21.41V27.59ZM118.801 28C118.681 28 118.581 27.96 118.501 27.88C118.421 27.8 118.381 27.7033 118.381 27.59V21.41H119.231V27.59C119.231 27.7033 119.191 27.8 119.111 27.88C119.031 27.96 118.928 28 118.801 28ZM116.481 21.76C116.368 21.76 116.271 21.7267 116.191 21.66C116.118 21.5867 116.081 21.4933 116.081 21.38C116.081 21.2667 116.118 21.1767 116.191 21.11C116.271 21.0367 116.368 21 116.481 21H121.131C121.245 21 121.341 21.0367 121.421 21.11C121.501 21.1767 121.541 21.2667 121.541 21.38C121.541 21.5 121.501 21.5933 121.421 21.66C121.341 21.7267 121.245 21.76 121.131 21.76H116.481ZM133.009 24.5C133.009 25.0133 132.925 25.49 132.759 25.93C132.592 26.3633 132.359 26.7433 132.059 27.07C131.759 27.3967 131.402 27.65 130.989 27.83C130.575 28.01 130.125 28.1 129.639 28.1C129.145 28.1 128.692 28.01 128.279 27.83C127.872 27.65 127.519 27.3967 127.219 27.07C126.919 26.7433 126.685 26.3633 126.519 25.93C126.352 25.49 126.269 25.0133 126.269 24.5C126.269 23.98 126.352 23.5033 126.519 23.07C126.685 22.63 126.919 22.25 127.219 21.93C127.519 21.6033 127.872 21.35 128.279 21.17C128.692 20.99 129.145 20.9 129.639 20.9C130.125 20.9 130.575 20.99 130.989 21.17C131.402 21.35 131.759 21.6033 132.059 21.93C132.359 22.25 132.592 22.63 132.759 23.07C132.925 23.5033 133.009 23.98 133.009 24.5ZM132.149 24.5C132.149 23.9533 132.039 23.47 131.819 23.05C131.605 22.63 131.312 22.3 130.939 22.06C130.565 21.82 130.132 21.7 129.639 21.7C129.145 21.7 128.709 21.82 128.329 22.06C127.955 22.3 127.662 22.63 127.449 23.05C127.235 23.47 127.129 23.9533 127.129 24.5C127.129 25.04 127.235 25.5233 127.449 25.95C127.662 26.37 127.955 26.7 128.329 26.94C128.709 27.18 129.145 27.3 129.639 27.3C130.132 27.3 130.565 27.18 130.939 26.94C131.312 26.7 131.605 26.37 131.819 25.95C132.039 25.5233 132.149 25.04 132.149 24.5ZM140.115 21C140.229 21 140.319 21.0367 140.385 21.11C140.452 21.1767 140.485 21.2633 140.485 21.37V27.58C140.485 27.7067 140.445 27.81 140.365 27.89C140.285 27.9633 140.189 28 140.075 28C140.015 28 139.955 27.99 139.895 27.97C139.835 27.9433 139.789 27.91 139.755 27.87L135.475 22.21L135.675 22.09V27.63C135.675 27.7367 135.639 27.8267 135.565 27.9C135.499 27.9667 135.409 28 135.295 28C135.189 28 135.102 27.9667 135.035 27.9C134.969 27.8267 134.935 27.7367 134.935 27.63V21.4C134.935 21.28 134.972 21.1833 135.045 21.11C135.125 21.0367 135.219 21 135.325 21C135.385 21 135.445 21.0133 135.505 21.04C135.572 21.06 135.622 21.0933 135.655 21.14L139.875 26.72L139.745 26.88V21.37C139.745 21.2633 139.779 21.1767 139.845 21.11C139.919 21.0367 140.009 21 140.115 21Z" fill="white"/>
<path d="M105.225 50H102.865L102.645 48.6C100.765 49.98 99.3651 50.46 97.2651 50.46C92.7251 50.46 89.6451 47.64 89.6451 43.48C89.6451 41.44 90.4251 39.6 91.8451 38.28C93.3051 36.9 95.3651 36.2 97.9051 36.2C101.845 36.2 104.425 37.9 105.285 41.08H101.685C101.045 39.5 99.6851 38.66 97.7651 38.66C95.1251 38.66 93.1851 40.6 93.1851 43.28C93.1851 45.9 95.1451 47.86 97.7651 47.86C99.6051 47.86 101.025 47.02 101.985 45.36H98.6251V42.66H105.225V50ZM114.032 39.74C115.912 39.74 117.572 40.3 118.732 41.3C119.812 42.26 120.352 43.52 120.352 45.16C120.352 48.26 117.752 50.4 113.992 50.4C110.172 50.4 107.632 48.28 107.632 45.06C107.632 41.86 110.172 39.74 114.032 39.74ZM114.012 42.08C112.252 42.08 111.032 43.3 111.032 45.06C111.032 46.82 112.252 48.06 113.992 48.06C115.692 48.06 116.952 46.82 116.952 45.12C116.952 43.32 115.752 42.08 114.012 42.08ZM128.505 39.74C130.385 39.74 132.045 40.3 133.205 41.3C134.285 42.26 134.825 43.52 134.825 45.16C134.825 48.26 132.225 50.4 128.465 50.4C124.645 50.4 122.105 48.28 122.105 45.06C122.105 41.86 124.645 39.74 128.505 39.74ZM128.485 42.08C126.725 42.08 125.505 43.3 125.505 45.06C125.505 46.82 126.725 48.06 128.465 48.06C130.165 48.06 131.425 46.82 131.425 45.12C131.425 43.32 130.225 42.08 128.485 42.08ZM145.338 40.14H148.498V48.24C148.498 50.58 148.138 51.7 147.058 52.6C146.038 53.48 144.638 53.86 142.518 53.86C140.218 53.86 138.638 53.46 137.758 52.64C137.138 52.06 136.898 51.48 136.898 50.42H140.438C140.558 51.34 141.258 51.76 142.638 51.76C143.498 51.76 144.178 51.56 144.678 51.18C145.198 50.78 145.338 50.34 145.338 49.28V48.58C144.118 49.56 143.278 49.86 141.878 49.86C138.718 49.86 136.578 47.84 136.578 44.84C136.578 41.82 138.718 39.8 141.878 39.8C143.258 39.8 144.118 40.12 145.338 41.08V40.14ZM142.658 42.16C140.978 42.16 139.718 43.3 139.718 44.82C139.718 46.34 140.998 47.5 142.638 47.5C144.258 47.5 145.558 46.34 145.558 44.88C145.558 43.34 144.298 42.16 142.658 42.16ZM154.495 36.66V50H151.335V36.66H154.495ZM168.734 45.7H159.934C159.954 47.24 161.054 48.2 162.754 48.2C163.974 48.2 164.734 47.78 165.114 46.88H168.614C168.294 47.78 167.874 48.36 167.074 49.02C165.934 49.96 164.594 50.4 162.854 50.4C160.774 50.4 159.134 49.84 158.114 48.8C157.214 47.88 156.734 46.6 156.734 45.14C156.734 41.84 159.054 39.74 162.734 39.74C165.214 39.74 167.074 40.66 167.974 42.36C168.494 43.32 168.694 44.26 168.734 45.7ZM160.034 43.74H165.354C165.034 42.38 164.154 41.7 162.694 41.7C161.234 41.7 160.334 42.38 160.034 43.74ZM177.139 50V36.66H185.179C186.559 36.66 187.579 36.94 188.439 37.54C189.619 38.38 190.319 39.74 190.319 41.22C190.319 42.9 189.439 44.4 188.019 45.12C186.979 45.64 185.699 45.92 184.319 45.92H180.479V50H177.139ZM180.479 43.22H184.499C185.959 43.22 186.779 42.54 186.779 41.28C186.779 40.04 185.959 39.36 184.499 39.36H180.479V43.22ZM195.354 36.66V50H192.194V36.66H195.354ZM201.713 43.32H198.513C198.693 42.2 198.973 41.56 199.553 41.04C200.473 40.22 202.233 39.74 204.313 39.74C206.313 39.74 207.933 40.18 208.773 40.94C209.333 41.44 209.633 42.34 209.633 43.48V48.82C209.633 49.52 209.653 49.58 209.853 50H206.733C206.593 49.6 206.573 49.46 206.533 48.82C205.373 49.96 204.173 50.4 202.213 50.4C200.673 50.4 199.473 50.04 198.713 49.36C198.053 48.76 197.713 48 197.713 47.14C197.713 46.12 198.233 45.26 199.173 44.74C199.893 44.36 200.493 44.24 203.173 44C206.033 43.76 206.473 43.6 206.473 42.94C206.473 42.16 205.593 41.7 204.093 41.7C202.493 41.7 201.813 42.16 201.713 43.32ZM206.533 45.94V45.26C205.613 45.58 205.273 45.66 203.833 45.8C202.473 45.92 202.093 45.98 201.713 46.14C201.353 46.3 201.113 46.68 201.113 47.08C201.113 47.84 201.913 48.44 202.953 48.44C203.833 48.44 204.793 48.12 205.573 47.58C206.213 47.14 206.533 46.58 206.533 45.94ZM219.779 40.14H223.219L218.739 49.58C216.999 53.38 216.839 53.52 214.039 53.6H212.239V50.9H214.079C214.839 50.9 215.259 50.6 215.259 50.04C215.259 49.78 215.199 49.58 215.019 49.22L210.699 40.14H214.239L216.079 44.46C216.539 45.52 216.599 45.68 217.039 47.02C217.399 45.98 217.779 44.98 217.999 44.46L219.779 40.14Z" fill="white"/>
<defs>
<linearGradient id="paint0_linear_205_27" x1="35.2704" y1="-65.1173" x2="209.653" y2="20.3943" gradientUnits="userSpaceOnUse">
<stop stop-color="#F7C41F"/>
<stop offset="1" stop-color="#917312" stop-opacity="0"/>
</linearGradient>
<clipPath id="clip0_205_27">
<rect width="32" height="32" fill="white" transform="translate(40.5 22.5)"/>
</clipPath>
</defs>
</svg>
