<svg width="16" height="17" viewBox="0 0 16 17" fill="none" xmlns="http://www.w3.org/2000/svg">
<g clip-path="url(#clip0_96_320)">
<path d="M12.4444 7.87568L5.32424 0.755608C5.15956 0.590796 4.93973 0.5 4.70532 0.5C4.47092 0.5 4.25108 0.590796 4.0864 0.755608L3.56205 1.27983C3.22085 1.62142 3.22085 2.1766 3.56205 2.51767L9.54105 8.49668L3.55541 14.4823C3.39073 14.6471 3.2998 14.8668 3.2998 15.1011C3.2998 15.3357 3.39073 15.5554 3.55541 15.7203L4.07977 16.2444C4.24458 16.4092 4.46428 16.5 4.69869 16.5C4.93309 16.5 5.15293 16.4092 5.31761 16.2444L12.4444 9.11782C12.6095 8.95248 12.7002 8.73174 12.6997 8.49707C12.7002 8.2615 12.6095 8.04088 12.4444 7.87568Z" fill="white"/>
</g>
<defs>
<clipPath id="clip0_96_320">
<rect width="16" height="16" fill="white" transform="translate(0 0.5)"/>
</clipPath>
</defs>
</svg>
