<svg width="24" height="25" viewBox="0 0 24 25" fill="none" xmlns="http://www.w3.org/2000/svg">
<g clip-path="url(#clip0_95_54)">
<path d="M23.7068 22.793L17.7378 16.824C19.3644 14.8346 20.1642 12.2961 19.9716 9.73359C19.7791 7.17106 18.609 4.78056 16.7034 3.05655C14.7977 1.33254 12.3024 0.406918 9.73342 0.47115C7.16447 0.535382 4.71849 1.58455 2.9014 3.40164C1.08431 5.21873 0.0351379 7.66472 -0.029094 10.2337C-0.0933258 12.8026 0.832293 15.298 2.5563 17.2036C4.28031 19.1092 6.67081 20.2793 9.23334 20.4719C11.7959 20.6644 14.3344 19.8647 16.3238 18.238L22.2928 24.207C22.4814 24.3892 22.734 24.49 22.9962 24.4877C23.2584 24.4854 23.5092 24.3803 23.6946 24.1948C23.88 24.0094 23.9852 23.7586 23.9875 23.4964C23.9897 23.2342 23.8889 22.9816 23.7068 22.793ZM9.99978 18.5C8.41753 18.5 6.87081 18.0308 5.55522 17.1518C4.23963 16.2727 3.21425 15.0233 2.60875 13.5615C2.00324 12.0997 1.84482 10.4912 2.1535 8.9393C2.46218 7.38746 3.22411 5.96199 4.34293 4.84317C5.46175 3.72435 6.88721 2.96243 8.43906 2.65374C9.99091 2.34506 11.5994 2.50349 13.0613 3.10899C14.5231 3.71449 15.7725 4.73987 16.6515 6.05546C17.5306 7.37106 17.9998 8.91778 17.9998 10.5C17.9974 12.621 17.1538 14.6545 15.654 16.1543C14.1542 17.654 12.1208 18.4976 9.99978 18.5Z" fill="#6F6F6F"/>
</g>
<defs>
<clipPath id="clip0_95_54">
<rect width="24" height="24" fill="white" transform="translate(0 0.5)"/>
</clipPath>
</defs>
</svg>
