<svg width="16" height="16" viewBox="0 0 16 16" fill="none" xmlns="http://www.w3.org/2000/svg">
<path d="M11.3336 16H4.67031C4.28479 15.9998 3.90386 15.9163 3.55361 15.7552C3.20335 15.5941 2.89204 15.3592 2.64098 15.0667C2.39346 14.7805 2.21068 14.4442 2.10517 14.0808C1.99966 13.7175 1.97389 13.3356 2.02965 12.9613C2.38759 11.0117 3.42763 9.25298 4.96365 8C3.4276 6.74657 2.38778 4.98739 2.03031 3.03733C1.97467 2.66334 2.00042 2.28175 2.10582 1.91863C2.21121 1.55551 2.39376 1.21942 2.64098 0.933333C2.89204 0.640764 3.20335 0.405896 3.55361 0.244806C3.90386 0.0837168 4.28479 0.000209228 4.67031 0L11.3336 0C11.7191 0.000341429 12.1 0.0839081 12.4503 0.244989C12.8005 0.406069 13.1118 0.640866 13.363 0.933333C13.6102 1.2193 13.7929 1.55523 13.8985 1.91821C14.0041 2.2812 14.0302 2.66269 13.975 3.03667C13.6139 4.9873 12.5717 6.74628 11.0343 8C12.5708 9.2548 13.6118 11.0145 13.9716 12.9653C14.0269 13.3394 14.0009 13.721 13.8953 14.0841C13.7896 14.4472 13.607 14.7833 13.3596 15.0693C13.1086 15.3609 12.7977 15.5949 12.4481 15.7555C12.0985 15.9161 11.7184 15.9995 11.3336 16ZM11.3336 1.33333H4.67031C4.47694 1.33321 4.28581 1.37485 4.11 1.45539C3.93419 1.53593 3.77785 1.65348 3.65165 1.8C3.52842 1.94029 3.43735 2.10583 3.38484 2.28502C3.33232 2.46421 3.31963 2.65272 3.34765 2.83733C3.59831 4.504 4.63031 6.064 6.41431 7.47533C6.49314 7.53775 6.55683 7.61719 6.60062 7.7077C6.6444 7.79821 6.66714 7.89745 6.66714 7.998C6.66714 8.09855 6.6444 8.19779 6.60062 8.2883C6.55683 8.37881 6.49314 8.45825 6.41431 8.52067C4.63031 9.93333 3.60031 11.4947 3.34765 13.1607C3.31933 13.3456 3.33187 13.5345 3.38439 13.714C3.43691 13.8936 3.52814 14.0595 3.65165 14.2C3.77785 14.3465 3.93419 14.4641 4.11 14.5446C4.28581 14.6252 4.47694 14.6668 4.67031 14.6667H11.3336C11.527 14.6668 11.7182 14.6252 11.894 14.5447C12.0698 14.4641 12.2261 14.3466 12.3523 14.2C12.4755 14.06 12.5666 13.8947 12.6191 13.7157C12.6716 13.5367 12.6843 13.3484 12.6563 13.164C12.4076 11.506 11.3763 9.94467 9.58965 8.52267C9.5113 8.46022 9.44804 8.38093 9.40456 8.29067C9.36108 8.20041 9.3385 8.10152 9.3385 8.00133C9.3385 7.90115 9.36108 7.80225 9.40456 7.712C9.44804 7.62174 9.5113 7.54244 9.58965 7.48C11.377 6.058 12.4083 4.49667 12.6563 2.838C12.6842 2.65303 12.6712 2.4642 12.618 2.28483C12.5649 2.10547 12.4731 1.93996 12.349 1.8C12.2232 1.65387 12.0674 1.53655 11.8922 1.45602C11.717 1.37549 11.5265 1.33365 11.3336 1.33333ZM10.4543 13.3333H5.54565C5.43657 13.3333 5.32916 13.3065 5.23286 13.2552C5.13656 13.204 5.05429 13.1299 4.99328 13.0395C4.93228 12.9491 4.89439 12.8451 4.88295 12.7366C4.8715 12.6281 4.88685 12.5185 4.92765 12.4173C5.4497 11.2901 6.24512 10.3111 7.24165 9.56933L7.58698 9.29467C7.70495 9.20083 7.85124 9.14975 8.00198 9.14975C8.15272 9.14975 8.29901 9.20083 8.41698 9.29467L8.75631 9.56533C9.75144 10.31 10.5468 11.2893 11.0716 12.416C11.1127 12.5172 11.1283 12.6269 11.117 12.7355C11.1057 12.8441 11.068 12.9483 11.007 13.0389C10.946 13.1295 10.8637 13.2037 10.7674 13.255C10.671 13.3064 10.5635 13.3333 10.4543 13.3333ZM6.68965 12H9.30831C8.92793 11.5042 8.48871 11.0565 8.00031 10.6667C7.50975 11.055 7.06948 11.5029 6.68965 12Z" fill="white"/>
</svg>
