<svg width="1328" height="277" viewBox="0 0 1328 277" fill="none" xmlns="http://www.w3.org/2000/svg">
<path fill-rule="evenodd" clip-rule="evenodd" d="M222.896 62.4287H269.19V29.0488H222.896V62.4287ZM222.896 204.469H269.19V76.5594H222.896V204.469ZM415.367 106.529C415.367 90.206 401.72 76.5594 385.397 76.5594H289.649V204.469H335.942V113.591H369.08V204.469H415.373V106.529H415.367ZM506.003 111.157V127.238H480.176V111.157H506.003ZM433.882 174.499C433.882 190.823 447.529 204.469 463.852 204.469H537.674L552.289 167.437H480.169V153.065H519.884C536.208 153.065 549.854 139.418 549.854 123.095V106.529C549.854 90.206 536.208 76.5594 519.884 76.5594H463.845C447.522 76.5594 433.876 90.206 433.876 106.529V174.506L433.882 174.499ZM749.635 204.469H795.928V113.591H822.731L837.352 76.5594H779.612C763.289 76.5594 749.642 90.206 749.642 106.529V204.469H749.635ZM910.925 204.469H880.955C864.632 204.469 850.985 190.823 850.985 174.499V113.591H836.612L850.985 76.5594V55.8509H897.278V76.5594H924.807L910.185 113.591H897.271V167.437H925.533L910.918 204.469H910.925ZM1007.65 111.157V127.238H981.821V111.157H1007.65ZM935.534 174.499C935.534 190.823 949.181 204.469 965.504 204.469H1039.33L1053.94 167.437H981.821V153.065H1021.54C1037.86 153.065 1051.51 139.418 1051.51 123.095V106.529C1051.51 90.206 1037.86 76.5594 1021.54 76.5594H965.497C949.174 76.5594 935.528 90.206 935.528 106.529V174.506L935.534 174.499ZM1068.56 204.469H1114.86V113.591H1141.66L1156.28 76.5594H1098.54C1082.22 76.5594 1068.57 90.206 1068.57 106.529V204.469H1068.56ZM1286.86 76.5594H1240.57V165.003H1209.87V76.5594H1163.58V172.065C1163.58 188.388 1177.22 202.035 1193.55 202.035H1240.57V216.65H1173.81L1160.16 251.247H1256.88C1273.21 251.247 1286.85 237.6 1286.85 221.277V76.5594H1286.86Z" fill="#231F20"/>
<path fill-rule="evenodd" clip-rule="evenodd" d="M629.486 137.467H668.268L650.686 64.0949H647.601L629.493 137.467H629.486ZM561.793 204.469L612.713 27.3467H685.76L735.505 204.469H684.585L676.623 173.524H620.792L612.713 204.469H561.793Z" fill="#231F20"/>
<path fill-rule="evenodd" clip-rule="evenodd" d="M41.0921 110.831C41.0921 116.773 40.8362 123.102 41.4587 128.96C41.5763 130.06 41.936 131.291 41.9429 132.543C41.9567 134.168 42.3302 138.706 42.7245 140.075L43.3055 143.741C43.4023 145.159 43.9764 147.255 44.4121 148.742C44.6473 149.537 44.5712 149.793 44.7165 150.644L45.5465 153.888C45.9061 155.651 46.5632 157.083 46.8745 158.833L47.6146 161.15C48.0365 162.361 48.7143 163.861 48.9633 165.058C49.1916 166.144 49.655 167.071 50.0769 168.018L51.8476 172.528C52.0205 172.929 52.0481 172.881 52.2003 173.192C52.3386 173.469 52.3801 173.655 52.477 173.932L53.2101 175.405C53.9848 176.955 54.6626 178.718 55.6379 180.109C55.9284 180.517 55.8385 180.448 56.0598 180.876L56.8206 182.149C57.042 182.53 57.042 182.467 57.2287 182.765L58.3769 184.674C58.6951 185.13 58.9717 185.469 59.283 185.974L64.1523 192.642C64.1523 192.642 64.2146 192.704 64.2353 192.732L66.5662 195.318C67.9288 196.965 69.8309 198.438 71.6223 199.593C73.7457 200.956 73.9117 201.384 76.6438 202.885C78.0271 203.639 80.282 204.808 81.7137 205.112C82.44 205.272 82.7374 205.189 83.436 205.431C87.9941 206.994 91.1965 206.772 95.8721 206.012L101.765 204.096C102.125 203.895 102.201 203.881 102.561 203.701C102.962 203.501 102.893 203.487 103.204 203.328C103.536 203.155 103.757 203.127 104.061 203.003L107.119 201.142C107.119 201.142 107.188 201.094 107.215 201.073C107.361 200.969 107.361 200.976 107.52 200.866C109.788 199.282 112.106 197.677 114.028 195.664C114.118 195.567 114.229 195.429 114.347 195.305C115.716 193.818 115.737 193.921 114.492 192.012L113.288 190.332C113.019 189.923 113.019 189.986 112.749 189.515C112.583 189.232 112.68 189.356 112.5 189.087L111.096 186.59C110.888 186.258 110.791 186.195 110.542 185.787C110.3 185.4 110.162 185.192 109.982 184.819L109.007 182.91C108.799 182.474 108.765 182.516 108.53 182.032L105.147 175.06C104.414 173.607 103.003 169.533 102.609 168.772C101.993 167.576 101.592 165.798 101.129 164.484L99.455 158.861C99.0676 157.498 98.7564 156.855 98.5766 155.326L96.6468 147.075C96.2387 145.636 96.3909 144.35 96.1834 142.959L95.305 138.069C94.807 135.392 95.056 132.647 94.5787 129.97C93.8732 126 94.1776 113.059 94.1845 108.971L94.5165 103.368C94.7793 101.535 95.0421 99.9238 95.0352 97.9525C95.0352 96.7559 95.0975 96.0089 95.1874 95.0475L96.8405 84.6518C97.214 83.5382 97.546 80.9998 97.8503 79.5542C98.0578 78.5582 98.3345 78.3438 98.5074 77.327L99.0884 74.8509C99.2544 74.3874 99.2544 74.1523 99.3789 73.6128L101.087 67.8512C101.876 66.0114 102.132 64.0401 102.969 62.2625L109.145 48.9272C109.74 47.5508 110.791 46.4303 111.4 45.0746C111.829 44.127 112.569 43.2279 113.122 42.384L114.264 40.475C114.858 39.6865 115.737 38.4346 115.737 37.3694C115.737 36.3043 111.732 32.6523 110.639 31.9468L108.225 30.1208C107.762 29.7611 107.388 29.6435 106.87 29.27C106.586 29.0694 106.517 29.0418 106.254 28.8689C105.977 28.6959 105.957 28.6475 105.659 28.4469C104.622 27.7553 102.574 26.6417 101.412 26.2405L99.2129 25.3829C97.9886 25.0647 96.3079 24.124 95.0421 24.124H88.084L79.1684 26.5794L69.0078 33.5584C68.7934 33.7589 68.911 33.6621 68.6551 33.8834C68.247 34.2362 67.8804 34.4644 67.5415 34.8034L63.5367 39.4514C63.5367 39.4514 63.4745 39.5136 63.4537 39.5413L61.7868 41.6094C60.8392 43.1103 59.6911 44.3069 58.7089 45.8285L56.0045 50.4212C55.4996 51.3964 55.0707 52.1365 54.5796 53.2363L52.7675 56.6808C52.6222 56.9367 52.5531 57.1373 52.4631 57.4001C52.3732 57.6837 52.3248 57.8635 52.1865 58.1402L50.5472 61.7645C50.3051 62.2763 50.2982 62.7951 50.0561 63.3069C49.4129 64.6626 48.9218 66.5509 48.3685 67.8996C48.1541 68.4184 48.1679 68.9233 47.9535 69.525C47.5869 70.5556 47.1304 71.4479 46.9091 72.5545L46.2381 75.1068C46.1551 75.3419 46.0583 75.7639 46.0237 75.9091C45.8716 76.5385 45.6848 77.0504 45.5603 77.6452C45.422 78.2746 45.4081 78.8141 45.2975 79.4228C45.1591 80.1905 44.9447 80.3565 44.7649 81.0966L43.3055 87.951C43.2363 88.6427 43.2916 89.1753 43.1948 89.8738C42.8905 91.9558 42.6415 91.8866 42.2541 95.2135C42.1089 96.4654 41.9291 97.5099 41.936 98.9693C41.936 100.36 41.5901 101.418 41.4103 102.684C41.189 104.247 41.0852 108.964 41.0852 110.838L41.0921 110.831Z" fill="#231F20"/>
<path fill-rule="evenodd" clip-rule="evenodd" d="M144.78 86.3947C148.508 87.2662 191.814 87.0725 195.521 87.0725C197.001 87.0725 195.604 83.711 195.549 83.1438L194.656 77.9287C194.546 77.3269 194.317 76.8704 194.207 76.3378C194.082 75.7361 194.068 75.162 193.909 74.5948L191.648 66.6753C191.295 65.9352 191.405 65.949 191.17 65.1121L187.055 54.9723C186.827 54.4258 186.585 54.0454 186.391 53.6028C186.28 53.3538 186.225 53.1186 186.1 52.8765L184.281 49.6049C183.375 47.8688 182.234 46.2434 181.196 44.5419L179.509 42.1557C177.994 40.302 176.673 38.2339 174.951 36.5324L170.773 32.3963C170.773 32.3963 170.711 32.334 170.683 32.3133L169.708 31.5939C167.709 30.2313 165.599 28.7581 163.414 27.7068C162.508 27.271 161.733 26.6831 160.758 26.2888L156.117 24.8225C155.556 24.7326 154.671 24.7188 154.235 24.6634C153.537 24.5735 152.983 24.5251 152.402 24.4559C150.666 24.2553 138.943 24.1032 136.466 24.1032C133.575 24.1032 113.468 23.9372 112.389 24.3107C111.172 24.7326 113.628 26.2197 114.015 26.5309L117.736 29.6019C117.736 29.6019 117.798 29.6642 117.826 29.6849L127.675 41.049C128.837 42.6882 130.089 44.4797 130.968 46.2365L135.374 55.0691C136.314 56.8398 137.04 59.2952 137.698 60.5471L138.88 64.1161C139.005 64.5242 139.192 64.7939 139.337 65.1882C139.51 65.6793 139.517 66.115 139.676 66.5438C139.89 67.1317 139.939 66.8758 140.132 67.6159C140.284 68.19 140.229 68.2868 140.443 68.8332C140.623 69.3036 140.748 69.4972 140.838 69.9607L141.516 72.3331C141.626 72.9002 141.599 73.087 141.765 73.6127C141.889 74 142.041 74.2144 142.166 74.7332C142.29 75.245 142.311 75.7223 142.401 76.1995C142.56 77.0779 142.927 77.7696 143.037 78.6203C143.189 79.7616 143.466 80.0521 143.653 81.2279C143.694 81.4977 143.75 82.1547 143.84 82.5697L144.787 86.3739L144.78 86.3947Z" fill="#231F20"/>
<path fill-rule="evenodd" clip-rule="evenodd" d="M111.005 206.371C111.213 206.489 111.185 206.537 111.517 206.537C116.504 206.537 152.353 206.8 154.13 206.392C154.829 206.233 154.753 206.157 155.424 205.984C157.063 205.576 155.756 206.074 157.962 205.306L163.752 202.955C164.167 202.796 164.429 202.623 164.851 202.353L170.149 198.652C170.426 198.459 170.371 198.48 170.62 198.272L174.963 194.302L179.231 189.066C179.397 188.831 179.425 188.817 179.598 188.589L182.938 183.45C183.125 183.18 182.966 183.429 183.16 183.166L187.573 174.513C188.458 172.452 190.042 168.876 190.567 166.815C190.727 166.206 190.581 166.608 190.789 166.186L192.691 160.113C192.871 159.172 193.196 158.75 193.452 157.478C193.583 156.814 193.666 156.737 193.86 156.184C193.998 155.776 194.067 155.306 194.13 154.925L196.191 145.449C196.191 144.391 193.258 144.765 191.439 144.772C190.298 144.772 189.897 144.606 188.901 144.592L158.516 144.426C157.381 144.426 156.254 144.426 155.12 144.426L148.625 144.723C147.553 144.868 146.301 144.661 145.27 144.758C144.17 144.862 144.35 145.851 144.032 146.916C143.735 147.919 143.776 148.769 143.513 149.786C143.382 150.298 143.195 150.672 143.119 151.093L141.501 158.135C141.397 158.653 141.21 158.944 141.051 159.387C140.857 159.933 140.92 160.23 140.754 160.791C140.546 161.496 140.463 161.192 140.249 161.987C140.103 162.541 140.124 162.838 139.917 163.357L139.059 165.895C138.775 166.476 138.845 166.67 138.672 167.209C138.513 167.714 138.319 167.956 138.16 168.392L135.808 174.527C135.573 175.129 135.455 175.115 135.186 175.772L134.639 176.927C134.39 177.487 134.356 177.584 134.093 178.075C133.097 179.908 132.288 181.886 131.209 183.678L127.937 188.893C126.422 191.259 124.589 193.624 122.729 195.734C122.431 196.073 122.182 196.239 121.892 196.591C121.283 197.318 120.965 197.712 120.273 198.362C120.08 198.542 120.004 198.604 119.831 198.763L119.388 199.171C119.139 199.386 119.167 199.344 118.938 199.572C117.32 201.156 114.775 203.335 112.879 204.711C112.257 205.161 111.199 205.59 110.991 206.385L111.005 206.371Z" fill="#231F20"/>
<path fill-rule="evenodd" clip-rule="evenodd" d="M878.728 217.341H791.488L778.699 250.748H865.939L878.728 217.341Z" fill="#4550A2"/>
<path fill-rule="evenodd" clip-rule="evenodd" d="M886.558 217.341L873.762 250.748H961.002L973.791 217.341H886.558Z" fill="#F15F34"/>
<path fill-rule="evenodd" clip-rule="evenodd" d="M981.62 217.341L968.831 250.748H1056.07L1068.86 217.341H981.62Z" fill="#F7BB44"/>
<path fill-rule="evenodd" clip-rule="evenodd" d="M1076.69 217.341L1063.9 250.748H1151.13L1163.93 217.341H1076.69Z" fill="#ED2125"/>
</svg>
