<svg width="26" height="27" viewBox="0 0 26 27" fill="none" xmlns="http://www.w3.org/2000/svg">
<g clip-path="url(#clip0_241_243)">
<path d="M17.5426 0.754883C17.6015 0.754883 17.6603 0.754883 17.7226 0.754883C17.8671 2.53966 17.1858 3.87323 16.3579 4.83897C15.5455 5.79803 14.4331 6.7282 12.6339 6.58707C12.5138 4.82785 13.1962 3.59318 14.023 2.62967C14.7898 1.73173 16.1956 0.932693 17.5426 0.754883Z" fill="white"/>
<path d="M22.9901 19.3314C22.9901 19.3492 22.9901 19.3647 22.9901 19.3814C22.4845 20.9128 21.7632 22.2252 20.883 23.4433C20.0796 24.549 19.0949 26.0371 17.3368 26.0371C15.8177 26.0371 14.8086 25.0602 13.2516 25.0335C11.6047 25.0069 10.699 25.8504 9.19312 26.0626C9.02087 26.0626 8.84862 26.0626 8.6797 26.0626C7.57394 25.9026 6.68155 25.0269 6.03143 24.2378C4.11441 21.9063 2.63303 18.8946 2.35742 15.0406C2.35742 14.6627 2.35742 14.286 2.35742 13.9082C2.47411 11.1499 3.81436 8.90725 5.59579 7.82038C6.53597 7.2425 7.82843 6.75018 9.26758 6.97022C9.88436 7.0658 10.5145 7.27695 11.0668 7.48587C11.5902 7.68702 12.2448 8.04375 12.8649 8.02486C13.285 8.01264 13.7028 7.79371 14.1263 7.63924C15.3665 7.19137 16.5823 6.67795 18.1848 6.9191C20.1107 7.21027 21.4776 8.06598 22.3222 9.38622C20.693 10.4231 19.405 11.9856 19.625 14.6539C19.8206 17.0776 21.2298 18.4957 22.9901 19.3314Z" fill="white"/>
</g>
<defs>
<clipPath id="clip0_241_243">
<rect width="25.308" height="25.308" fill="white" transform="translate(0.0195312 0.754883)"/>
</clipPath>
</defs>
</svg>
