<svg width="17" height="16" viewBox="0 0 17 16" fill="none" xmlns="http://www.w3.org/2000/svg">
<path d="M8.5002 0.00771171C5.22341 0.00771171 2.11177 -0.283548 0.923249 2.76431C0.432318 4.02313 0.503612 5.65797 0.503612 7.99887C0.503612 10.053 0.437733 11.9836 0.923249 13.2325C2.10907 16.2822 5.24597 15.99 8.49839 15.99C11.6362 15.99 14.8715 16.3165 16.0744 13.2325C16.5663 11.9611 16.4941 10.3506 16.4941 7.99887C16.4941 4.87707 16.6664 2.8617 15.1512 1.34859C13.6171 -0.184358 11.5423 0.00771171 8.49659 0.00771171H8.5002ZM7.78365 1.44778C14.6188 1.43696 15.4888 0.677701 15.0086 11.2253C14.8381 14.9557 11.9954 14.5464 8.5011 14.5464C2.12982 14.5464 1.94662 14.3642 1.94662 7.99527C1.94662 1.55238 2.452 1.45139 7.78365 1.44598V1.44778ZM12.7688 2.77423C12.239 2.77423 11.8095 3.20346 11.8095 3.73277C11.8095 4.26209 12.239 4.69132 12.7688 4.69132C13.2985 4.69132 13.7281 4.26209 13.7281 3.73277C13.7281 3.20346 13.2985 2.77423 12.7688 2.77423ZM8.5002 3.89508C6.23235 3.89508 4.39406 5.73282 4.39406 7.99887C4.39406 10.2649 6.23235 12.1018 8.5002 12.1018C10.768 12.1018 12.6054 10.2649 12.6054 7.99887C12.6054 5.73282 10.768 3.89508 8.5002 3.89508ZM8.5002 5.33515C12.0243 5.33515 12.0288 10.6626 8.5002 10.6626C4.97704 10.6626 4.97163 5.33515 8.5002 5.33515Z" fill="white"/>
</svg>
