<svg width="25" height="24" viewBox="0 0 25 24" fill="none" xmlns="http://www.w3.org/2000/svg">
<path d="M12.9173 0.0115676C8.00211 0.0115676 3.33465 -0.425322 1.55187 4.14647C0.815469 6.0347 0.922409 8.48696 0.922409 11.9983C0.922409 15.0795 0.823591 17.9755 1.55187 19.8488C3.33059 24.4233 8.03595 23.9851 12.9146 23.9851C17.6213 23.9851 22.4742 24.4747 24.2787 19.8488C25.0164 17.9416 24.9081 15.5259 24.9081 11.9983C24.9081 7.31561 25.1667 4.29255 22.8938 2.02288C20.5926 -0.276536 17.4805 0.0115676 12.9119 0.0115676H12.9173ZM11.8425 2.17167C22.0952 2.15544 23.4001 1.01655 22.68 16.8379C22.4241 22.4336 18.1601 21.8195 12.9186 21.8195C3.36172 21.8195 3.08693 21.5463 3.08693 11.9929C3.08693 2.32857 3.84499 2.17708 11.8425 2.16897V2.17167ZM19.3202 4.16135C18.5256 4.16135 17.8812 4.80518 17.8812 5.59916C17.8812 6.39314 18.5256 7.03697 19.3202 7.03697C20.1148 7.03697 20.7591 6.39314 20.7591 5.59916C20.7591 4.80518 20.1148 4.16135 19.3202 4.16135ZM12.9173 5.84263C9.51551 5.84263 6.75809 8.59923 6.75809 11.9983C6.75809 15.3974 9.51551 18.1526 12.9173 18.1526C16.3191 18.1526 19.0751 15.3974 19.0751 11.9983C19.0751 8.59923 16.3191 5.84263 12.9173 5.84263ZM12.9173 8.00273C18.2034 8.00273 18.2101 15.9939 12.9173 15.9939C7.63256 15.9939 7.62443 8.00273 12.9173 8.00273Z" fill="white"/>
</svg>
