<svg width="24" height="24" viewBox="0 0 24 24" fill="none" xmlns="http://www.w3.org/2000/svg">
<path d="M6.62846 3.27266C6.62846 3.91993 6.43652 4.55266 6.07691 5.09085C5.71729 5.62904 5.20616 6.0485 4.60815 6.2962C4.01014 6.5439 3.3521 6.60871 2.71726 6.48243C2.08241 6.35616 1.49927 6.04447 1.04157 5.58678C0.58387 5.12909 0.272173 4.54596 0.145894 3.91112C0.0196151 3.27629 0.0844255 2.61827 0.33213 2.02027C0.579835 1.42227 0.999309 0.911146 1.53751 0.551542C2.0757 0.191938 2.70845 0 3.35573 0C4.22371 0 5.05615 0.344797 5.6699 0.958539C6.28366 1.57228 6.62846 2.4047 6.62846 3.27266Z" fill="white"/>
<path d="M5.88597 8.72764V23.1862C5.88655 23.2929 5.86604 23.3986 5.82562 23.4973C5.78519 23.596 5.72566 23.6858 5.65044 23.7614C5.57522 23.837 5.48579 23.8971 5.3873 23.938C5.2888 23.979 5.18319 24 5.07652 24H1.62707C1.5204 24.0003 1.41473 23.9795 1.31613 23.9388C1.21753 23.8982 1.12794 23.8384 1.05251 23.763C0.977088 23.6875 0.917315 23.598 0.876629 23.4994C0.835942 23.4008 0.815145 23.2951 0.815433 23.1884V8.72764C0.815433 8.51238 0.900945 8.30594 1.05316 8.15373C1.20537 8.00152 1.41181 7.91602 1.62707 7.91602H5.07652C5.2914 7.91659 5.49728 8.00236 5.64902 8.1545C5.80076 8.30665 5.88597 8.51276 5.88597 8.72764Z" fill="white"/>
<path d="M23.9171 16.2545V23.2536C23.9174 23.3517 23.8983 23.4489 23.8609 23.5395C23.8235 23.6302 23.7685 23.7126 23.6992 23.7819C23.6298 23.8512 23.5474 23.9062 23.4568 23.9436C23.3661 23.981 23.269 24.0001 23.1709 23.9998H19.4618C19.3637 24.0001 19.2666 23.981 19.1759 23.9436C19.0852 23.9062 19.0029 23.8512 18.9335 23.7819C18.8642 23.7126 18.8092 23.6302 18.7718 23.5395C18.7344 23.4489 18.7153 23.3517 18.7156 23.2536V16.4705C18.7156 15.4582 19.0123 12.0371 16.0691 12.0371C13.7891 12.0371 13.3244 14.3782 13.2327 15.4298V23.2536C13.2327 23.4497 13.1556 23.6378 13.018 23.7774C12.8804 23.9171 12.6934 23.9969 12.4974 23.9998H8.9149C8.81701 23.9998 8.72009 23.9805 8.62968 23.943C8.53927 23.9054 8.45716 23.8504 8.38804 23.7811C8.31893 23.7118 8.26417 23.6295 8.22691 23.539C8.18965 23.4485 8.17061 23.3515 8.1709 23.2536V8.66412C8.17061 8.56624 8.18965 8.46926 8.22691 8.37874C8.26417 8.28823 8.31893 8.20595 8.38804 8.13664C8.45716 8.06732 8.53927 8.01232 8.62968 7.9748C8.72009 7.93727 8.81701 7.91796 8.9149 7.91796H12.4974C12.6953 7.91796 12.8851 7.99657 13.0251 8.1365C13.165 8.27644 13.2436 8.46623 13.2436 8.66412V9.92519C14.0902 8.6554 15.3447 7.67578 18.0218 7.67578C23.952 7.67578 23.9171 13.2131 23.9171 16.2545Z" fill="white"/>
</svg>
