<svg width="17" height="16" viewBox="0 0 17 16" fill="none" xmlns="http://www.w3.org/2000/svg">
<path d="M4.86357 2.18178C4.86357 2.6133 4.73561 3.03513 4.49587 3.39392C4.25613 3.75271 3.91539 4.03235 3.51672 4.19749C3.11805 4.36262 2.67936 4.40583 2.25614 4.32165C1.83292 4.23746 1.44416 4.02967 1.13903 3.72454C0.833903 3.41941 0.626108 3.03065 0.541923 2.60743C0.457739 2.1842 0.500945 1.74552 0.666079 1.34685C0.831213 0.948183 1.11086 0.607434 1.46965 0.367697C1.82844 0.127959 2.25027 0 2.68178 0C3.26043 0 3.81538 0.229866 4.22454 0.63903C4.6337 1.04819 4.86357 1.60314 4.86357 2.18178Z" fill="white"/>
<path d="M4.36859 5.81843V15.4575C4.36898 15.5287 4.3553 15.5991 4.32835 15.6649C4.30141 15.7308 4.26172 15.7906 4.21157 15.841C4.16143 15.8914 4.10181 15.9314 4.03615 15.9587C3.97049 15.986 3.90008 16.0001 3.82897 16.0001H1.52937C1.45826 16.0003 1.38781 15.9864 1.32208 15.9593C1.25634 15.9322 1.19662 15.8923 1.14633 15.842C1.09605 15.7917 1.0562 15.732 1.02908 15.6663C1.00196 15.6006 0.988091 15.5301 0.988283 15.459V5.81843C0.988283 5.67492 1.04529 5.5373 1.14676 5.43582C1.24824 5.33435 1.38586 5.27734 1.52937 5.27734H3.82897C3.97222 5.27773 4.10947 5.33491 4.21063 5.43634C4.31179 5.53777 4.36859 5.67517 4.36859 5.81843Z" fill="white"/>
<path d="M16.3889 10.8364V15.5025C16.3891 15.5679 16.3763 15.6326 16.3514 15.6931C16.3265 15.7535 16.2899 15.8084 16.2436 15.8547C16.1974 15.9009 16.1425 15.9375 16.082 15.9625C16.0216 15.9874 15.9568 16.0001 15.8914 15.9999H13.4188C13.3534 16.0001 13.2886 15.9874 13.2282 15.9625C13.1677 15.9375 13.1128 15.9009 13.0666 15.8547C13.0203 15.8084 12.9837 15.7535 12.9588 15.6931C12.9339 15.6326 12.9211 15.5679 12.9213 15.5025V10.9804C12.9213 10.3055 13.1191 8.02478 11.157 8.02478C9.637 8.02478 9.32719 9.58548 9.2661 10.2866V15.5025C9.26611 15.6332 9.2147 15.7586 9.12298 15.8517C9.03126 15.9448 8.90659 15.998 8.77592 15.9999H6.3876C6.32234 15.9999 6.25772 15.987 6.19745 15.962C6.13718 15.937 6.08244 15.9004 6.03636 15.8541C5.99029 15.8079 5.95378 15.7531 5.92894 15.6927C5.9041 15.6324 5.89141 15.5677 5.8916 15.5025V5.77609C5.89141 5.71083 5.9041 5.64618 5.92894 5.58583C5.95378 5.52549 5.99029 5.47064 6.03636 5.42443C6.08244 5.37821 6.13718 5.34155 6.19745 5.31653C6.25772 5.29152 6.32234 5.27864 6.3876 5.27864H8.77592C8.90785 5.27864 9.03438 5.33105 9.12767 5.42434C9.22096 5.51763 9.27337 5.64416 9.27337 5.77609V6.6168C9.83772 5.77027 10.6741 5.11719 12.4588 5.11719C16.4122 5.11719 16.3889 8.80877 16.3889 10.8364Z" fill="white"/>
</svg>
