<svg width="26" height="27" viewBox="0 0 26 27" fill="none" xmlns="http://www.w3.org/2000/svg">
<g clip-path="url(#clip0_241_228)">
<path d="M19.4193 9.43626C16.4793 7.79189 11.7606 5.1514 4.4414 1.05323C3.94794 0.727336 3.38019 0.684628 2.88965 0.850663L15.4473 13.4083L19.4193 9.43626Z" fill="#32BBFF"/>
<path d="M2.89032 0.850586C2.79838 0.881727 2.70892 0.919293 2.62335 0.96467C2.08165 1.25769 1.68359 1.82153 1.68359 2.53466V24.2818C1.68359 24.9949 2.0816 25.5587 2.62335 25.8517C2.70877 25.897 2.79819 25.9348 2.89003 25.9661L15.4479 13.4082L2.89032 0.850586Z" fill="#32BBFF"/>
<path d="M15.4476 13.4082L2.88965 25.9661C3.38034 26.1333 3.94809 26.0939 4.44169 25.7633C11.5397 21.7886 16.2053 19.1794 19.1793 17.5211C19.2621 17.4745 19.3432 17.4291 19.4234 17.384L15.4476 13.4082Z" fill="#32BBFF"/>
<path d="M1.68359 13.4082V24.2818C1.68359 24.9949 2.0816 25.5587 2.62335 25.8517C2.70877 25.897 2.79819 25.9347 2.89003 25.9661L15.4479 13.4082H1.68359Z" fill="#2C9FD9"/>
<path d="M4.44274 1.05284C3.85675 0.665905 3.16572 0.676928 2.62402 0.964411L15.258 13.5985L19.4206 9.43588C16.4807 7.7915 11.7619 5.15101 4.44274 1.05284Z" fill="#29CC5E"/>
<path d="M15.2581 13.2168L2.62402 25.8508C3.16577 26.1382 3.85675 26.1548 4.44274 25.7624C11.5408 21.7877 16.2063 19.1785 19.1803 17.5202C19.2631 17.4736 19.3442 17.4282 19.4244 17.3831L15.2581 13.2168Z" fill="#D93F21"/>
<path d="M24.663 13.4076C24.663 12.805 24.359 12.1969 23.7564 11.8597C23.7564 11.8597 22.6295 11.2309 19.1752 9.29883L15.0664 13.4076L19.1792 17.5204C22.5955 15.6022 23.7564 14.9554 23.7564 14.9554C24.359 14.6182 24.663 14.0101 24.663 13.4076Z" fill="#FFD500"/>
<path d="M23.7564 14.956C24.359 14.6188 24.663 14.0108 24.663 13.4082H15.0664L19.1792 17.521C22.5956 15.6028 23.7564 14.956 23.7564 14.956Z" fill="#FFAA00"/>
</g>
<defs>
<clipPath id="clip0_241_228">
<rect width="25.308" height="25.308" fill="white" transform="translate(0.519531 0.754883)"/>
</clipPath>
</defs>
</svg>
