<svg width="24" height="24" viewBox="0 0 24 24" fill="none" xmlns="http://www.w3.org/2000/svg">
<g clip-path="url(#clip0_101_473)">
<path d="M19.707 23.5907C14.5852 24.1371 9.41977 24.1371 4.29794 23.5907C3.30333 23.4856 2.37477 23.0429 1.66706 22.3361C0.959361 21.6294 0.515278 20.7015 0.408849 19.707C-0.137585 14.5852 -0.137585 9.41977 0.408849 4.29794C0.513882 3.30333 0.956662 2.37477 1.66337 1.66706C2.37008 0.959361 3.29802 0.515278 4.29249 0.408849C9.41432 -0.137585 14.5797 -0.137585 19.7016 0.408849C20.6962 0.513882 21.6247 0.956662 22.3325 1.66337C23.0402 2.37008 23.4842 3.29802 23.5907 4.29249C24.1371 9.41432 24.1371 14.5797 23.5907 19.7016C23.4856 20.6962 23.0429 21.6247 22.3361 22.3325C21.6294 23.0402 20.7015 23.4842 19.707 23.5907Z" fill="black"/>
<path d="M19.1489 8.39181C18.8489 7.46863 17.8562 6.90953 16.9425 6.78135C13.6563 6.43226 10.3424 6.43226 7.05618 6.78135C6.14254 6.90953 5.14709 7.46317 4.84981 8.39181C4.38209 10.775 4.38209 13.2264 4.84981 15.6095C5.14981 16.5314 6.14254 17.0918 7.05618 17.22C10.3424 17.5691 13.6563 17.5691 16.9425 17.22C17.8562 17.0918 18.8516 16.5382 19.1489 15.6095C19.6166 13.2264 19.6166 10.775 19.1489 8.39181ZM10.2048 14.8745V9.12544L14.8848 12C13.3071 12.9695 11.7757 13.9091 10.2048 14.8745Z" fill="white"/>
</g>
<defs>
<clipPath id="clip0_101_473">
<rect width="24" height="24" fill="white"/>
</clipPath>
</defs>
</svg>
