<svg width="25" height="24" viewBox="0 0 25 24" fill="none" xmlns="http://www.w3.org/2000/svg">
<g clip-path="url(#clip0_376_2283)">
<path d="M24.415 6.1859C24.139 5.1469 23.326 4.3279 22.293 4.0499C20.422 3.5459 12.917 3.5459 12.917 3.5459C12.917 3.5459 5.41199 3.5459 3.53999 4.0499C2.50799 4.3279 1.69499 5.1459 1.41899 6.1859C0.916992 8.0699 0.916992 11.9999 0.916992 11.9999C0.916992 11.9999 0.916992 15.9299 1.41899 17.8139C1.69499 18.8529 2.50799 19.6719 3.54099 19.9499C5.41199 20.4539 12.917 20.4539 12.917 20.4539C12.917 20.4539 20.422 20.4539 22.294 19.9499C23.326 19.6719 24.139 18.8539 24.416 17.8139C24.917 15.9299 24.917 11.9999 24.917 11.9999C24.917 11.9999 24.917 8.0699 24.415 6.1859ZM10.463 15.5689V8.4309L16.735 11.9999L10.463 15.5689Z" fill="white"/>
</g>
<defs>
<clipPath id="clip0_376_2283">
<rect width="24" height="24" fill="white" transform="translate(0.916992)"/>
</clipPath>
</defs>
</svg>
